<svg xmlns="http://www.w3.org/2000/svg" viewBox="0 0 512 512"><path fill="currentColor" fill-rule="evenodd" d="M265.1 72.3c-5 2-10.6 7-12.9 12a73 73 0 0 0-1.8 41.6c.9 2.4 1.6 6.3 1.6 8.8v4.4l-8.7 4.1c-5 2.4-10 4-11.7 4a47 47 0 0 0-17.7 3.8c-2 1-5 3.2-6.7 4.8l-3.2 3-1-3.7c-2-7.8-2.2-9.2-1.6-11.4.4-1.7 1.7-2.6 5-3.5q7.5-2 7.6-10c0-4.4-4.4-9.2-8.4-9.2-2.3 0-6.7-2.3-16.1-8.6A666 666 0 0 0 161 95c-11.4-6.5-16-9.7-17.2-12-2.5-4.4-8-6.5-13-5-4.5 1.3-7.8 5.2-7.8 9.3 0 1.6 2.5 12.8 5.5 24.9s5.5 22.7 5.5 23.6 4.8 10.4 10.6 21c10.3 18.8 10.6 19.6 9.6 23q-3 10.5-.8 25.7c1.3 8.5 2 10.3 4.1 12.3a10 10 0 0 0 4 2.2c2 0 1.9.6-1 29.5l-2.2 24-3 2c-1.5 1-5.5 4.6-8.8 7.9s-7.9 7.2-10.2 8.8a35 35 0 0 0-7 7.1c-2.7 3.8-2.8 4.8-3.5 19.1-.4 8.3-1.1 17.1-1.7 19.6-1.7 7.6-1.2 20.3 1.4 36.2 1.4 8.4 2.9 20.7 3.2 27.4.5 11.1.4 12.3-1.3 14-1.1 1.1-4.5 5.1-7.6 9a52 52 0 0 1-19.3 16.9c-8.1 4.3-10.9 6.6-12.6 10.6-5 12.2 24.7 17.3 42.9 7.4a21 21 0 0 1 13-3.5c11.8 0 19.8-3.6 21.6-9.6 1-3-3.8-24-6-26.4-1-1.1-1.5-2.2-1.3-2.4s6.1-3.4 13.1-7l12.8-6.8 19.7 2.1c26 2.8 27.3 3 27.3 4.7 0 .7-1.2 2.1-2.7 3-4.1 2.6-5.3 4.4-5.3 8.1 0 4.4 1.4 4.9 16.7 6.3l12.2 1.1 4.2-2.7q4.3-2.7 3.6-1c-.3.8-.9 3-1.3 5s-1 3.8-1.4 4.1c-.5.3-2.2 5-3.9 10.3-2 6.6-4.6 12-8 17.2-5.9 8.7-7 12.5-4.7 16.8q3.4 6.7 20.1 6.7c15.3 0 24.4-5 26-14.2.4-2.1 1.4-4.5 2.2-5.4 2.4-2.9 2.5-8 .2-20.4-2-10.8-3.2-29.6-1.9-30.8.3-.2 3.9 0 8 .4l36.5 3.9c35 3.6 36.5 3.8 36.5 5.4 0 .7-1.1 2.3-2.5 3.6a7 7 0 0 0-2.5 5.7c0 4.2 1.6 5 14 6.2 7.2.8 9.8.8 11.1-.2 3-2 44.2-37.8 48.6-42 3.4-3.2 4.3-4.8 4.3-7.4q0-3.2-1.5-4a3 3 0 0 1-1.5-2.2c0-3.1-3-6-6.9-6.6l-3.9-.6.4-66.2c.2-36.4.6-76.2.8-88.4l.3-22.2 2.7-3.1q4.8-5.8.6-12.8a8 8 0 0 0-5-3.9q-3.2-.5-2.6-2.2a644 644 0 0 0 11.6-49.6c0-2-1.6-11-3.6-19.8l-4.4-20c-1.6-8.2-8-12.2-15.4-9.7-3.8 1.2-7.6 5.8-7.6 9.1 0 2.6-46 32-50.6 32.5-2.3.2-4.8 1.3-6.4 2.9-1.4 1.4-3.6 2.5-4.9 2.5-3 0-7.7 2.5-8.5 4.5a28 28 0 0 0-.6 6.1c0 5.5 3.3 9.4 8 9.4a5 5 0 0 1 4.6 2.5c.9 1.3 4 4 6.9 6 4 2.6 5.4 4.2 5.9 6.6.7 3.9.8 15.9 0 15.9-.3 0-2.2-1.1-4.2-2.5s-4.2-2.5-5-2.5-2.6-2.7-4.2-6c-3.7-7.3-10.3-14.3-15.4-16-4.3-1.6-4.1-.1-2.1-25.5 1.7-21.2 1.3-22.8-6.9-28.3-4.5-3-5.4-3.2-13.5-3.2h-8.7l-1.3-4.7c-2.7-10.3-10.8-16.4-22.5-17a32 32 0 0 0-10.5 1m-.6 2.6C260.4 76.7 254 83 254 85.3q.2.9 2-2c3-5.1 9.2-8.6 16-9.1 6.6-.5 11.2.8 16.7 4.5q3.6 2.4 2.3.8c-4.8-5.8-18.7-8.2-26.5-4.6M266 78q-9.6 3.8-12.1 20c-2 13.5.5 29.4 5.2 32 3.1 1.6 10.2 1 15.4-1.5 5.1-2.3 10.8-7.8 12-11.5q.6-2 2-2.1c2 0 6.5-5.9 6.5-8.6 0-1.4-.7-2.7-1.5-3-1-.5-1.2-1-.5-2.4 2.3-4.3.3-13.8-3.8-18.3-4.5-5-16.2-7.4-23.2-4.6m-138 3.7c-2.4 2.4-3 3.8-2.9 6.9l.1 3.8.7-4.2c.9-5 2.4-7 6.1-7.8 3.2-.7 8.4 1.5 9.4 4q1.7 4.7-1.5 8.9-2.1 2.6-.6 2c.9-.3 2-1.9 2.7-3.5s1.5-2.9 1.7-2.9c1.7 0 36.7 20.9 48.2 28.6q14.6 10 7.4 4a504 504 0 0 0-54-33c-1.3-.4-2.3-1.4-2.3-2.1 0-2.7-4.5-6.6-8.2-7.2-3.2-.5-4.1-.1-6.8 2.5m282 1.1c-1.7 1.7-3 4-3 5.4 0 2.2-3 4.5-21.7 16.6-12 7.8-23 15-24.3 16.2l-2.5 2.1 2.5-1.4 30.5-19.5 15.1-9.6q1.1-.5 1.7.7.6 1.3-20.5 14.7c-19.5 12.4-20.8 13.4-18.2 14.1 7.7 2 9.2 1.5 26.4-9 15.1-9.4 20.4-13.9 17.4-15-.6-.1-2-1-3-1.8s-1.3-1.2-.6-.9q1.6 1-.2-2.3c-2.2-4.3-2-6 1.3-9.3s5.8-3.6 10.4-1.4l3.2 1.6-2.4-2c-3.5-3.1-8.6-2.8-12.2.8m-117.4.1q.6 1 1.1 1t-.1-1c-.7-1-.8-1-1.1-1s-.2.5.1 1m-162.8 1.8c-4.8 5.3 2 12.1 7.7 7.9 1-.8 1.8-2.6 1.8-4.2 0-5-6.2-7.4-9.5-3.7m282.5.4c-1.7 1.7-1.5 6.4.4 8.2 3.3 3.4 9.4.7 9.4-4.2 0-4.3-6.7-7-9.8-4m-281.1 1.2c-1.7 2-.2 4.6 2.5 4.6 2.9 0 4.1-2.4 2.4-4.5q-2.5-2.9-4.9-.1m162.9-.9q0 .5.5.5t.5-.5q-.1-.6-.5-.5t-.5.5m130 0q0 .5.5.5t.5-.5q-.1-.6-.5-.5t-.5.5m-10.6 2c-1 2.5.4 4.7 2.8 4.3q2.4-.2 2.3-2.8c-.1-2.6-.6-2.6-2.3-2.8q-2-.2-2.8 1.2M132 88q.2 1 2 1c1.8 0 2-.4 2-1s-.9-1-2-1-2 .5-2 1m121-.5q0 .5.5.5t.5-.5-.5-.5-.5.5m161.4.6c-1 1.7 1.3 3.6 2.7 2.2 1.2-1.2.4-3.3-1.1-3.3q-.9.1-1.6 1m10.8 1q0 2.2.5 1.3c.2-.7.2-1.9 0-2.5q-.5-1-.5 1.2M252 90q0 1.1.7.7a1 1 0 0 0 0-1.4q-.7-.4-.7.7m-111.3 5.3c-1.6 1.6-2.5 3.3-2 3.7s5.6 3.3 11.5 6.4 16 8.7 22.6 12.5c9.5 5.4 12.7 6.8 16.4 7 9.6.3 8-1.2-20.2-18.1a515 515 0 0 0-21.5-12.5l-4-1.9zM126.5 94c.5.7 1 2.7 1 4.4s.9 4.2 1.5 5.6l1 2.5-.5-2.7-1.1-5.4c-.6-2.4-.5-2.6 1.7-1.9 2.7.8 2.5.6-1.5-2q-2.6-1.4-2-.5m299.4-.5q0 .5.5.5t.5-.5q-.1-.6-.5-.5t-.5.5m-113.2 1.9c2.4.6 5.4 2 6.6 3.1s3 2.1 3.7 2.3 0-.8-1.6-2.2c-3-2.5-8.5-4.7-11.5-4.5q-1 .1 2.8 1.3m-13 .3q1.2.4 2-.1c.7-.5-.3-.6-1.4-.5q-1.7 0-.6.6m3.2-.2q0 .5.5.5t.5-.5q-.1-.6-.5-.5t-.5.5m-167.4 1.3c-1 1.8.6 4.8 3.7 6.6l13.7 7.3a193 193 0 0 1 11.3 6.2c.4.4-1.1 4.5-3.3 9s-3.5 8-2.7 7.3c1.4-1.2 8.2-16 7.6-16.6l-13.9-7.5c-13.6-7.3-16.5-9.5-15.6-11.8.6-1.4 0-1.8-.8-.5m291.5.8q0 1.7.6.6.4-1.2-.1-2c-.5-.7-.6.3-.5 1.4m-126.9 1.2c-1 .7-1 1.5-.2 3.6 1.3 3.6-.2 9.5-3.4 13.3a30 30 0 0 0-3.2 18.1 61 61 0 0 0 21.2 13.2c2.8 0 2.9-.6 4.4-19.9 1.6-20.9 1.4-23.8-1.5-26.6-2-2.2-3.3-2.5-9.2-2.5-3.7 0-7.4.4-8 .8m116.7-.3q0 .5.5.5t.5-.5q-.1-.6-.5-.5t-.5.5m3.7.3c-.2.4-.7 2-1 3.4s-1.4 3.4-2.3 4.3c-1.5 1.5-1.5 2.6.9 14.3l2.5 12.7-5.4 19.5c-3 10.7-7 24.7-9 31-4.7 15.1-5 16.3-3 18.3s6 2.2 7.4.4c2-2.3 18.2-67 18.3-72.7 0-2-.8-7.3-1.9-12s-2.3-10.3-2.6-12.5-1-4.8-1.2-5.7c-.6-1.9-2-2.4-2.7-1m-288.7 1c0 .6 2 9.3 4.5 19.5 4.3 17.8 4.8 19 12.6 33.3 4.5 8.2 8.5 15.3 9 15.8s1-.7 1.4-2.7c.6-3.1-.2-4.8-8.2-17.8l-8.9-14.4-1.8-13.9c-1.7-13.4-1.8-14-5.2-17.2-1.9-2-3.4-3-3.4-2.5m283.7 2.1c-.5 2-4.2 4.7-16 11.8-15 9-22.5 14-16.7 11l17.3-10.2c14.1-8.5 17.3-11.2 16.4-13.9q-.4-.9-1 1.3m12.5-.5c0 1.1.3 2.9.8 4 1.1 2.5 1.1 0 0-3.5q-.9-3-.8-.5m-178 2.5q0 3 .5 1.8c.2-1 .2-2.6 0-3.5q-.5-1.3-.5 1.7m71.8-1.5q0 .5.5.5t.5-.5q-.1-.6-.5-.5t-.5.5m4 1q0 .5.5.5t.5-.5q-.1-.6-.5-.5t-.5.5m-2.7 5q0 3.5.4 1.7.4-2.6 0-4c-.4-1.4-.5.1-.4 2.3m-193.1 0c0 1.1.3 2.9.8 4 1.1 2.5 1.1 0 0-3.5q-.9-3-.8-.5M142 110q0 1.1.7.7a1 1 0 0 0 0-1.4q-.6-.4-.7.7m288 .6q.2 1.7.7.6t-.1-2c-.5-.7-.6.3-.5 1.4M146 111.9a239 239 0 0 0 2.5 19.6c.3 1.1 1.2 2.8 2 3.9 2 2.5 3.1 1.1 7.7-9l3.6-8.1-7.9-4.2c-7.2-3.8-7.9-4-7.9-2.2m104 .1q0 1.1.7.7a1 1 0 0 0 0-1.4q-.7-.4-.7.7m157.9 1.3-2.6 2.2 3 14.3c1.8 7.8 3.4 14.2 3.7 14.2s1.2-2.7 2-6c1.5-5.4 1.5-6.5-.3-15.7-1-5.4-2.2-10.1-2.6-10.5s-1.8.3-3.2 1.5m-265.9-.8q0 .5.5.5t.5-.5-.5-.5-.5.5m180.3 5.5c0 3 .2 4.3.4 2.8s.2-4 0-5.5-.4-.3-.4 2.7M143 115q0 1.1.7.7a1 1 0 0 0 0-1.4q-.6-.4-.7.7m-10.8 1.5c0 1.1.4 3.1.8 4.5q.8 2.9.8.5c0-1.1-.4-3.1-.8-4.5q-.8-2.9-.8-.5m298.8-1q0 .5.5.5t.5-.5q-.1-.6-.5-.5t-.5.5m-288 3q.2 1.8.7.7t-.1-2c-.5-.7-.6.3-.5 1.4m260 0q0 1.7.6.6.4-1.2-.1-2c-.5-.7-.6.3-.5 1.4m-3.8 2.4c1 6.3 7.9 38.5 8.3 39q.3 0 .4-2.8c0-4.6-7-37.5-8.2-38.7q-1-1.2-.5 2.5m32.8-1.4q0 1.7.6.6.4-1.2-.1-2c-.5-.7-.6.3-.5 1.4m-266 4.6c-1.2 2.8-2 5.3-1.7 5.5s1.3-1.9 2.5-4.7c1.2-2.7 2.5-5 2.9-5s2.5 1.2 4.7 2.5 4.5 2.5 5 2.5-1.3-1.4-4.2-3-5.6-3-6.1-3-1.9 2.3-3 5.2m-22-.7q0 2.6.5 1.2c.5-1.4.2-2.3 0-3s-.5.1-.5 1.8m244.5 1.1c-3.1 2-5.5 4-5.2 4.4s1.8 1 3.5 1.4c2.4.4 3.5 1.5 4.6 4.3 1.4 3.3 1.4 4 0 7.5l-1.5 4 7.2 12 7.2 12.2.3-4.6a126 126 0 0 0-3.2-21c-1.9-9-3.8-18-4.1-20-.4-2.1-1.2-3.8-1.9-3.8s-3.7 1.7-6.9 3.6m-185.4-2a1 1 0 0 0 1.4 0q.4-.5-.7-.6c-1.1-.1-1 .3-.7.7m147.5 1.6q-2 2-.8 1 1.8-1.4 3.5-2.1 1.8-1 .8-1.2c-1-.2-2.2 1-3.5 2.3m82.4-.3q0 2.2.5 1.3c.2-.7.2-1.9 0-2.5q-.5-1-.5 1.2m-263.6.6c-.9 2.2-.8 2.4 1.2 2.4 3.4 0 4.4-1.6 1.8-2.8-2-.9-2.5-.8-3 .4m36.5-1.3 2.9 2.2 2.5 2-2-2.2c-1-1.3-2.3-2.3-2.8-2.3s-.8.1-.6.3m-72 2.3q0 1.7.6.6.4-1.2-.1-2c-.5-.7-.6.3-.5 1.4m151.2 1.5c-1.3 1.5-2.3 3.3-2.3 4s-2.7 6.6-6 12.9-5.8 11.6-5.6 11.7 1.8-.2 3.7-.7c1.8-.6 7.9-1 13.3-1 7.4 0 11-.5 13.7-1.7 2.1-1 3.9-2 3.9-2.3s-3-2.3-6.6-4.4a63 63 0 0 1-8.1-5.5c-1.5-1.4-1.6-1-1 4.7.3 3.4.3 6.2.1 6.2s-1-2.1-1.9-4.7l-1.5-4.8.5 4.5q.6 4.6-.5 3c-1.3-2-1.3-6.7 0-12.9.7-2.7 1-6.5.8-8.3l-.3-3.4zm36 1.4q0 4.4.4 2.2.4-3.2 0-5c-.4-1.8-.4 0-.4 2.8m33-1.6q-1.5 1.4-.4 2.4c.6.6 1.1 2.4 1.1 3.9s.5 2.8 1 2.8 1-1.3 1-2.8.6-3.7 1.4-4.8c1.3-1.7 1.4-1.3 1 3.7-.7 6 1 9.3 2.2 4.2 1.2-5.7 2.6-9.3 3.5-9.3q.7.2-.1 2.6c-1.3 3.3-1.3 9.1 0 9.9.5.3 1.2-.7 1.5-2.2s1.2-4.1 2-5.8c1.2-2.8 1.3-2.7.8 2.8-.6 6.1 1 8.1 2.2 2.7q1.5-6.7 6.1-5c1.4.6 4.2 1 6.2.9q4-.2 1.2-.6c-1.4-.3-2.8-1-3.2-1.7q-.8-1-.8.4-.1 1.4-2.5-1.4c-2.5-3.2-3.9-3.5-16-3.9q-7-.2-8.2 1.2m-149 1.1c.4 1.4.7 3.5.7 4.8q0 2 1 1.7c1.6-1 1.2-6.1-.7-7.6q-2-2-1 1.1m-19.1-.1c-1 .5-.9 2 0 6 1.3 5.1 2.8 6.9 2.8 3a9 9 0 0 1 1-3.9c1.7-3.2-1-6.8-3.8-5.1m247.3 2.1c-.4 1.7-.5 3.4-.2 3.6s.7-1 1-2.7c1-4.2.1-5-.8-.9m-298.4-.4q0 1.7.6.6.4-1.2-.1-2c-.5-.7-.6.3-.5 1.4m43.8-1.2a39 39 0 0 0 4.3 13.6c1.3 0 2-6.5 1-10-.7-3.2-3.7-5.2-5.3-3.6m17.8.2q-.4.8.8 2a4 4 0 0 1 1.5 3.5c0 1 .7 1.9 1.5 1.9 1.8 0 2-5 .3-6.8-1.3-1.3-3.1-1.6-4-.6m14.1 2.6q-.4 3.4.4 3c.5-.6.7-2.2.5-3.8q-.3-4.2-.9.8m-65.7-.2q0 2.2.5 1.3c.2-.7.2-1.9 0-2.6q-.5-.8-.5 1.3m25.4-1c-2.2.4-4.6 1.6-5.3 2.6-1.3 1.7-1.2 2 1.3 2.2 2 .3 3 1.3 4.2 4.3 2.2 5.6 3.6 5 3-1.3l-.6-5.3 1.9 4a23 23 0 0 1 1.9 5.3c0 2 1.7 1.4 2.3-.8.8-3.1-1.6-11.5-3.3-11.6a27 27 0 0 0-5.4.6m103.4 1.5q0 .5.5.5t.5-.5q-.1-.6-.5-.5t-.5.5m75.2.7c-2.7 2.7-.4 11.4 4 15.5 6.4 6 17.8 6.6 23 1.1 3-3.3 3.5-3.4 4.1-1q.5 2.4.6 0-.1-1.8 3.4-2 3.5 0-2-.8c-3-.4-6.4-1-7.8-1.4s-2.5-.2-2.5.3-1.6 1.5-3.5 2.1c-3 1-3.8.9-6-.9a16 16 0 0 0-5.5-2.6c-1.5-.3-3-1.3-3.4-2.1s-1-1.2-1.6-.9q-1.1.6-.4-2.2c.4-1.5.7-3 .6-3.3q0-4.9-3-1.8m-187.2.3q0 .5.5.5t.5-.5-.5-.5-.5.5m109.3.2a1 1 0 0 0 1.4 0q.4-.6-.7-.7c-1.1-.1-1 .3-.7.7m3.2 1.4c-4.6 2.1-14.4 2.6-16.3.7q-1.3-1.6-1.2 2c0 5.4-2.1 13.3-4.1 15.3-2.4 2.4-4.8 2.6-2.6.1 2.2-2.4 4-7.2 2.6-7.2-1 0-10.9 4.7-11.9 5.7q-.2.4 1 1.3c1.8 1.1 2.6 1-11 1.3-7.8.2-10.3.6-14 2.5-5.6 3-8.5 5.6-11.7 10.5q-4.2 6.7 1.2 6.7c1.4 0 4.2.7 6.2 1.5l3.6 1.5-.7-5.2-.7-5.3 2 2c1.1 1.1 2.8 5 3.7 8.5 4.2 16.8 14 23 26.4 16.8 4.3-2.2 4.5-2.5 5-7.8.4-3 1.3-7.3 2-9.5 1.4-4.4 5-10 5.7-9.1.3.3-.2 3.3-1 6.8s-1.8 8.5-2.1 11.1c-.5 4.1-.2 5.1 1.8 7.2q5 5 19 4.3c10.5-.4 16-3.1 28.5-14 11-9.3 15.6-11.8 22.6-11.7h5l-5 1.6c-6.4 2-9 3.9-19 13.9a56 56 0 0 1-15 11.5c-6.4 3.1-7.7 3.4-16.5 3.4-11 0-17.6-2-21.3-6.4l-2.3-2.8-3.3 2.7c-5.8 4.9-16.1 5.9-24.5 2.5-1.9-.8-1.8 0 .2 5.4q.6 1.5-1.1.8t-1.7 1a49 49 0 0 0 5 15.2 49 49 0 0 1 4.5 19.9c.1 2.9.4 5.4.6 5.5.2.2 3.5.1 7.2-.1 5.7-.3 6.6-.6 5.6-1.8-.6-.7-.8-2.5-.5-3.9.6-2.3.3-2.5-2.4-2.5-3.8 0-3.1-1.6 1-2.5 2.4-.5 3-1 2.5-2.6s.3-6 2-10.1c.7-1.7.5-1.7-2.9-.3-3.9 1.6-12.2 2-13 .6-.3-.5 1.7-1.1 4.5-1.5 8.8-1.2 9.5-1.7 10.2-8a26 26 0 0 1 1.9-7.8c1.2-2 1.3-1.6 1.6 5.5.3 8.9.4 8.9 10.2 10.1 7.3 1 9.1 1.6 8.5 2.7-.9 1.3-8.5 1.1-13.8-.5-4.3-1.3-4.6-1.3-5.1.8-.3 1.1-.6 4-.6 6.2 0 4 .1 4.2 3.7 4.8 2.1.3 6.3.6 9.3.6 5.2 0 5.4.2 3.5 1.6-1.5 1.2-3.4 1.4-7.8 1a48 48 0 0 1-7.4-1.3q-1.8-.8-1 1c.4 1 0 3.1-.8 4.7-1.5 2.9-1.5 3 1.7 3.4 1.8.3 6.1.7 9.6 1l6.3.4 3.3-7.3c2.2-4.6 4.6-8.2 6.7-9.8 9.8-7.5 13.2-9.8 14.2-9.4s-2.3 4-12.5 13.3a31 31 0 0 0-6.8 13.7c0 .3 1.9.8 4.2 1.2s6.6 1.6 9.7 2.6 5.6 1.7 5.8 1.5a89 89 0 0 0 2.3-19.8c0-7.6 1-11.2 3.5-12.2 1.5-.5 1.6-.1 1 3.1l-.6 3.8 9-9c5-5.2 10-11.3 11.5-14.3 2.5-4.9 2.5-5.4 1.2-8.7-.9-2-2.9-4.3-4.6-5.3q-5.5-3.1-.4-3.2c3 0 5.6 1.3 8.7 4.4 1.3 1.3 5 3.3 8.3 4.5 9.7 3.5 13.2 5.3 15.1 7.4 1.8 2 1.7 2-1.2 1.3a92 92 0 0 1-11.3-4.6l-8.8-4c-.2 0-.4 1-.4 2 0 2.8 7.5 10.1 13.3 12.8 2.6 1.2 6.9 2.5 9.5 2.9s8 2 12 3.5c5.6 2.2 8.5 2.8 13 2.6 5.2-.3 5.8-.6 8-3.7 3.5-5.3 4.5-10.6 4-21.1-.5-7-1.4-11.8-3.7-18.3a120 120 0 0 1-4.2-16.7l-1.2-7.9-2.5 2a9 9 0 0 1-3.8 1.9c-1 0-1.2 2-.8 8.8.7 10.3-.7 9.7-3.2-1.5-.9-4-2-7-2.3-6.8-.4.2-.2 3.3.5 6.7 1.8 8.6 1.7 11.5-.6 18.4-3.8 11-3.7 16.8.5 26.8 1.4 3.3-3 0-5.7-4.1-2-3.2-2.3-5.1-2.3-11.9 0-9.1-.6-10.4-7-13.7a23 23 0 0 0-11.7-2.1c-8.8 0-9-1.7-.3-2.4 3-.2 5.5-.6 5.5-.7l-1.5-3.8a28 28 0 0 0-12.8-13.4c-4.6-2.3-6-2.5-14.1-2.1q-15.3.6-9.5 3.2c1.8.8-1.3 1.1-13.6 1.7-14 .6-17 1-22.5 3.2-3.5 1.5-6.6 2.5-6.7 2.3s1.4-3 3.5-6.2a275 275 0 0 0 14.2-24.8c0-1-1-.6-5.5 1.5m65.5-.2c-1.4 2.7-1.3 3.7.6 5.5 2.4 2.5 2.9 2 3-2.9 0-4.8-1.7-6-3.6-2.6m66-.3q.2 1.7.7.6t-.1-2c-.5-.7-.6.3-.5 1.4m-270 .8c0 1.7 15.6 31.6 16.5 31.6.6 0-1.4-3.9-8.9-17.4-3.3-6-6.3-12.1-6.7-13.5q-.9-2.7-1-.7m55.5.6q-.5 2.1 1 4.7c1.6 2.4 1.6 2.6 0 2q-1.6-.5-2.1.8-.8 1.4-2.3 1.5a12 12 0 0 0-5.2 2.4c-3 2-4.2 2.3-7.4 1.6-2-.5-4-1.3-4.4-1.8q-.7-.8-2.7.7-2.3 1.6-1.3 3.8c2.5 6.7 16.4 5.5 24-2.1 3.5-3.4 5.4-10.8 3.7-13.6q-2.2-3.8-3.3 0m196.5-1.5q0 .5.5.5t.5-.5q-.1-.6-.5-.5t-.5.5m-229.7 2c-1.8.8-3.3 1.6-3.3 1.8 0 .6 6.8-1.7 7.6-2.6 1.1-1.1-.8-.7-4.3.8m215.8.7c-1.4 3.9-.3 5.6 4 6 3.7.3 3.9.2 3.9-2.3 0-1.5.3-3.4.6-4.3.5-1.3-.2-1.6-3.5-1.6-3.4 0-4.3.4-5 2.2m-53.8 2.8q0 4 .4 2.3c.2-1.3.2-3.3 0-4.6q-.4-1.6-.4 2.3m108.3 10.6c-2 8-3.6 14.8-3.3 15 .2.3 2-6.1 4.1-14.2s3.5-14.8 3.3-15c-.2-.3-2 6.1-4.1 14.2M209 136.5q0 .5.5.5t.5-.5-.5-.5-.5.5m177.2 2q0 2.6.5 1.2c.5-1.4.2-2.3 0-3s-.5.2-.5 1.8m20.9-1q0 1.8.6.7.4-1.2-.1-2c-.5-.7-.6.3-.5 1.4m-244.3.1c-2.5.4-2.6.7-2 4.1.6 4.7.5 4.5 4.2 3.7 2.9-.6 3-1 2.8-4.3-.3-3.8-.8-4.1-5-3.5m44.2-.2q0 .5.5.5t.5-.5-.5-.5-.5.5m-2 1q0 .5.5.5t.5-.5-.5-.5-.5.5m-6.5 1.6q-.6 1-.2 1.5c.4.5.7-.2 1-1 .7-1.8.1-2.1-.8-.5m-48.5.4q0 .5.5.5t.5-.5-.5-.5-.5.5m109.3 7.6c.7 8.7 1.4 10.9 3.2 10.9 1 0 .9-1.9-.6-8.7-1-4.7-2.2-8.9-2.5-9.2-.4-.3-.4 2.8 0 7m107.6-6.6q0 .5.5.5t.5-.5q-.1-.6-.5-.5t-.5.5m41 1q.2 1.8.7.7t-.1-2c-.5-.7-.6.3-.5 1.4M153.2 145c.7 1 1.4 1.8 1.5 1.6.6-.6-1-3.6-1.8-3.6q-.7.2.3 2m94.8-1.5q0 .5.5.5t.5-.5-.5-.5-.5.5m-2 1q0 .5.5.5t.5-.5-.5-.5-.5.5m-2 1q0 .5.5.5t.5-.5-.5-.5-.5.5m170 0q0 .5.5.5t.5-.5q-.1-.6-.5-.5t-.5.5m-172 1q0 .5.5.5t.5-.5-.5-.5-.5.5m-87 2q0 .5.5.5t.5-.5-.5-.5-.5.5m228 1.8c0 1.8 15.4 30.4 17.5 32.5q.4.1 1-2c.5-1.9-1.4-6-8.1-17.6-4.8-8.4-9.1-15.2-9.6-15.2s-.8 1-.8 2.3m29.6-.8q-.6 1.7-.5 2.8.1.9 1-1.2c.9-2 .8-2.6.5-2.8s-.6.3-1 1.2m-214.2.5c.3.8 1 4.1 1.6 7.3s1.4 5.6 1.7 5.4a37 37 0 0 0-3-13.2q-.7-.9-.3.5m211.6.5q0 .5.5.5t.5-.5q-.1-.6-.5-.5t-.5.5m-249 1.2c0 .4.5 1.5 1 2.3q1.1 2 1-.2 0-1.7-1-2.3c-1-.6-1-.3-1 .2m58-.2q0 .5.5.5t.5-.5-.5-.5-.5.5m171 0q0 .5.5.5t.5-.5q-.1-.6-.5-.5t-.5.5m-175.6 2q-2.8 2.2.6.4 4.3-2 2.4-1.9c-.6 0-1.9.7-3 1.6m176.6-.1q0 .5.5.5t.5-.5q-.1-.6-.5-.5t-.5.5m-148.5 1.2-6.4.9c-5.2.9-1.8 2.4 5.4 2.4 7 0 13 1.5 16.8 4.2s3.7 0-.2-3.6a19 19 0 0 0-11.6-4.4zm168.5.3q0 1.1.7.7a1 1 0 0 0 0-1.4q-.7-.4-.7.7m-221.1 1.8q-2.7 1.4-3.8 6.5c-1.3 5.5-1.5 12-.3 11.5l5.4-2.6c2.7-1.2 4.8-2.8 4.8-3.4 0-2.5-2.4-13.8-3-13.7-.2 0-1.7.8-3.1 1.7m6.8 1.7c1 6 2.4 10 1.7 4.5-.4-2.5-1-5.4-1.5-6.5q-.8-2-.2 2m12.7-1.2-1.9 2.2 2.3-2q3-2.5 1.9-2.5-.5.2-2.3 2.3m68-1.3a22 22 0 0 0-7 2q-2.6 1.4.6.5c1.4-.3 5.8-1 9.9-1.5s7.6-1.2 7.9-1.5c.7-.7-5-.4-11.4.5m115.6 1q1 1.8 1.6 2c.6.2 0-.9-.6-2s-1.3-2-1.6-2 0 .9.6 2m-229.5 13.3c-6.3 19.1-6.6 22.3-3 41.3 1 5.3 12 5.6 28.5.9a48 48 0 0 0 23.3-11.9c6-5.8 6-7.7.2-3.3-4 3-13 6.5-14.1 5.4-.2-.2 2.5-1.9 6.2-3.7 3.7-2 8.1-5.2 10-7.4 3-3.6 3.4-4.6 2.9-7.6-.9-4.7-2.7-6.5-8-8a23 23 0 0 0-18.8 2.7c-3.8 2.6-4.3 3.4-4.9 8.5-.4 3.1-1.4 7.4-2.3 9.5-1.3 3-1.8 3.5-2.6 2.3q-1.2-1.8-.5.6.6 2-1.4 3.9-3.8 3.7-.4-5.6c2-5.7 2.3-14.7.5-15.9-1.6-1-.9-11.3 1.4-19.8.7-2.9 1-5.2.5-5.2s-1 1.6-1.4 3.5-1.6 5.4-2.7 7.8l-2 4.2.6-5.5c.3-3 .8-6.5 1.1-7.8q.8-2.5-1-1.6c-.9.3-2.9.1-4.5-.4l-3-1zm-3.5-12.8q0 .5.5.5t.5-.5-.5-.5-.5.5m250 1.5q0 1.1.7.7a1 1 0 0 0 0-1.4q-.7-.4-.7.7m-26.4 2.5c.3 1.7 2 7.3 3.7 12.5a53 53 0 0 1 3.2 22.5c0 12-.2 13.4-2.7 18.7-3.3 7-6.3 8.8-15.3 8.8-4.7 0-8.5-.7-12.8-2.5a99 99 0 0 0-13.7-4c-4.3-.8-9.5-2.7-12.2-4.4-4.8-3-4.8-3-5.2-.8a557 557 0 0 0-3.8 48.8c.4.4 6.7.9 14 1.1l13.2.5v-2.8c0-2.3 3.5-6 20.9-22.4l20.8-19.6.5-7c.3-3.8 1-7.5 1.7-8.2s.8-1.7.5-2 .1-3.7 1.1-7.4l1.8-6.8-5.2-9.3-8.1-14c-2.7-4.1-3-4.3-2.4-1.7m15.6 6.4a40 40 0 0 0 4.7 7.6c.4-.5-7.8-15.5-8.5-15.5-.3 0 1.4 3.6 3.8 8m9.4-4.4c-.4 1.4-.5 2.8-.3 3s.8-.7 1.1-2.2c.4-1.4.5-2.8.3-3s-.8.7-1.1 2.2M204 162.5q0 .5.5.5t.5-.5-.5-.5-.5.5m220 3.9-2.6 10.7a55 55 0 0 0-2.1 10.5c.2.3 1.6-4.3 3.1-10.2s2.4-10.9 2.1-11.2-.5-.2-.5.2m-269.3 4c1 2 1.8 3.4 2 3.2.5-.5-2.5-6.6-3.2-6.6-.3 0 .3 1.6 1.2 3.5m251.3 2c-.7 2.5-1 4.8-.8 5s1-1.5 1.7-4c1.5-6.2.8-7-.9-1m-189-.5q0 1.1.7.7a1 1 0 0 0 0-1.4q-.7-.4-.7.7m-58 .5q0 .5.5.5t.5-.5-.5-.5-.5.5m97 1q0 .5.5.5t.5-.5q-.1-.6-.5-.5t-.5.5m-68.1 3.3q-2 2.3.4.3t1.3-2.1q-.5.2-1.7 1.8m67.2-.2q0 1.7.6.6.4-1.2-.1-2c-.5-.7-.6.3-.5 1.4m-37.1-.1q0 .5.5.5t.5-.5-.5-.5-.5.5m135.5.5q.6 1 1.1 1c.5 0 .2-.4-.1-1s-.8-1-1.1-1-.2.5.1 1M157 178.5q0 .5.5.5t.5-.5-.5-.5-.5.5m200 .9q.2.5 1.8 1.7 2.3 2 .3-.4t-2.1-1.3m47 .6q0 1.1.7.7a1 1 0 0 0 0-1.4q-.7-.4-.7.7m-248 1q0 1.1.7.7a1 1 0 0 0 0-1.4q-.6-.4-.7.7m26.4 4.8c0 3.1-.2 7-.6 8.7l-.7 3 1.4-3c1.5-3 1.8-13.2.4-14-.4-.3-.6 2.1-.5 5.3M254 181q0 1.1.7.7a1 1 0 0 0 0-1.4q-.7-.4-.7.7m148 5c-.6 2.3-1 4.4-.7 4.6s1-1.4 1.6-3.7 1-4.3.8-4.5-1 1.4-1.6 3.7m21.6-3.4c.7.2 1.9.2 2.6 0q.8-.5-1.3-.5c-2.1 0-2 .2-1.2.5m5.3 2q1.2 2 1.8 1.7c.6-.3-.3-1.2-1.3-2.2q-2.5-2.5-.5.5m-274 .9q0 1.7.6.6.4-1.2-.1-2c-.5-.7-.6.3-.5 1.4m219.6 1.3c-.9 4.3-.8 13.3.2 19.1l.8 4.5.9-3c1.1-3.8 1-18.2-.3-21.4-1-2.4-1-2.4-1.6.8m48-1.2c-1 .9-.9 2.3 0 2.2q3.6-.6 3.1 2.3-.3 2.4-2.5 2.3c-2.8 0-3.3 1.4-1.1 2.8 2.4 1.5 6-1.8 5.6-5.1-.3-2.5-4-5.7-5.1-4.5M222.5 189q.6 1 1.1 1t-.1-1c-.6-1-.8-1-1.1-1s-.2.5.1 1m135.8 4.5c0 3.3.2 4.5.4 2.7s.2-4.5 0-6-.4 0-.4 3.3m72.9-3.5q0 2.2.5 1.3c.2-.7.2-1.9 0-2.6q-.5-.8-.5 1.3m-15 6.5c-1.9 6.3-2.7 7.7-5.3 9-2.9 1.5-3.3 1.5-7.2-.4-3.8-2-4-2-2.1-.1q4.6 4.5 10.1 1c2.6-1.6 3.6-3.2 5.4-9 1.2-4 2-7.3 1.7-7.5-.2-.3-1.4 2.9-2.6 7m7.8-6.5q0 1.1.7.7a1 1 0 0 0 0-1.4q-.7-.4-.7.7m-269.8 3q0 3 .5 1.8c.2-1 .2-2.6 0-3.6s-.5-.1-.5 1.8m144.2-1.8q-.6 1 .4.4c1.2-.7 1.6-1.6.8-1.6q-.5 0-1.2 1.2m22.6.3q0 .5.5.5t.5-.5q-.1-.6-.5-.5t-.5.5m-103 1q0 .5.5.5t.5-.5-.5-.5-.5.5m3.1 2.7c0 1.8.5 4.4.9 5.8.6 2 .8 1.4.9-2.7 0-2.8-.3-5.5-.9-5.8q-1-.5-.9 2.7m178.9-2.7q0 .5.5.5t.5-.5q-.1-.6-.5-.5t-.5.5m-172 2q0 .5.5.5t.5-.5-.5-.5-.5.5m65 0q0 .5.5.5t.5-.5q-.1-.6-.5-.5t-.5.5m111 1.5c-.9 1.6-.8 2.5 0 3.6 2.8 3.3 7.6.2 5.3-3.5-1.5-2.4-4-2.5-5.3-.1m24 .6-2.5 2.6v70.6l-.2 70.7.6-70.7.7-70.7 2.2-2.1q3-3 1.9-3a17 17 0 0 0-2.8 2.6M230 195.5q0 .5.5.5t.5-.5-.5-.5-.5.5m14.3.2a1 1 0 0 0 1.4 0q.4-.7-.7-.7c-1.1 0-1 .3-.7.7m46.7-.2q0 .5.5.5t.5-.5q-.1-.6-.5-.5t-.5.5m108.3 3q0 3.5.4 1.7.4-2.6 0-4c-.4-1.4-.5.1-.4 2.3m-111-1.8a1 1 0 0 0 1.4 0q.4-.7-.7-.7c-1.1 0-1 .3-.7.7M267 198a55 55 0 0 0 15 .6 65 65 0 0 0-15-.6m17.8-.3q1.2.4 2-.1c.7-.5-.3-.6-1.4-.5q-1.7 0-.6.6m91.3.9q0 1.7.6.6.4-1.2-.1-2c-.5-.7-.6.3-.5 1.4m-39.1-.1q0 .5.5.5t.5-.5q-.1-.6-.5-.5t-.5.5m68 0q0 .5.5.5t.5-.5q-.1-.6-.5-.5t-.5.5m13.5 2.8c-1 3.6-2.4 69.5-2.7 133l-.3 58.8 2.3.6q2.1.5 2.6.2c.5-.3.7-44.2 1-97.6.7-85.6.6-97.3-.7-97.3q-1.4.2-2.2 2.3m-263.4.3q0 1.7.6.6.4-1.2-.1-2c-.5-.7-.6.3-.5 1.4m134.1 2.4q-3.2 3.8-2.2 4.5c1.4.9-1 3.8-5.8 6.7l-3.3 2-3-2.8c-1.6-1.5-2.9-2.6-2.9-2.3 0 1.8 3.8 9.8 4.4 9.2q.6-.6 0 1-1 3.4 3-.3l8-7.2 5.8-5.2-2.7-1c-2.6-.8-2.6-.8-.6-2.2q2-1.4 6-.8c3.2.5 4.6.3 6.1-1.1 2.5-2.3 2.7-5 .3-4-3.2 1.4-8.3 1.8-8.3.6q.2-2.9-4.8 2.9m69.8-3q0 1.1.7.7a1 1 0 0 0 0-1.4q-.7-.4-.7.7m-144 .5q0 .5.5.5t.5-.5-.5-.5-.5.5m-3.1 3.3q-2 2.3.4.3t1.3-2.1q-.5.2-1.7 1.8m110.1-1.3q0 .5.5.5t.5-.5q-.1-.6-.5-.5t-.5.5m-25.2 1.2q1.2.4 2-.1c.7-.5-.3-.6-1.4-.5q-1.7 0-.6.6m30.2-.2q0 .5.5.5t.5-.5q-.1-.6-.5-.5t-.5.5m71 0q0 .5.5.5t.5-.5q-.1-.6-.5-.5t-.5.5m-241.8 3q0 2.6.5 1.2c.5-1.4.2-2.3 0-3s-.5.2-.5 1.8m54 2a87 87 0 0 1-7.3 4.7 132 132 0 0 0 7.6 25c.5 1.3 1.9 1.8 5.1 1.8 2.4 0 4.4-.2 4.4-.5l1.5-10.1 1.6-9.6-2.8-7.9c-1.5-4.3-3-7.9-3.3-7.8s-3.4 2-6.9 4.4m110.4-3.4q-.6 1-.2 1.5c.4.5.7-.2 1-1 .7-1.8.1-2.1-.8-.5m94.8 3.4q0 3.5.4 1.7.4-2.6 0-4c-.4-1.4-.5.1-.4 2.3m-207.9-1.3q-.6 1 .4.4 1.1-.7 1.2-1.2c0-.8-.9-.4-1.6.8m20.6 1.3c-1 2.5-.4 5.5 1 5.5.4 0 1-1.8 1.2-4 .4-4.5-.8-5.3-2.2-1.5m71.3-1.8a1 1 0 0 0 1.4 0q.4-.7-.7-.7c-1.1 0-1 .3-.7.7m30.7-.2q0 .5.5.5t.5-.5q-.1-.6-.5-.5t-.5.5m70 1.1-1 9.4a10924 10924 0 0 0-13.5 148c-3 33.7-4.3 49.4-4 49.8.2.2 2.1.6 4.3.9l4 .5.6-4.3 5.6-61.4 8-90.5 3.8-42.2.8-8.6-2.6-.5c-1.4-.2-3.3-.8-4.2-1.2q-1.6-.6-1.8.1m-195 .9q0 .5.5.5t.5-.5-.5-.5-.5.5m113 0q0 .5.5.5t.5-.5q-.1-.6-.5-.5t-.5.5m-115 1q0 .5.5.5t.5-.5-.5-.5-.5.5m97.3.6c-.6.6-3 1.1-5.2 1s-4.1.4-4.1 1c0 1.2 3.4 2.9 6 2.9 2 0 6-3.2 6-5 0-1.3-1.3-1.3-2.7.1m-99.3.4q0 .5.5.5t.5-.5-.5-.5-.5.5m113 3.3-3.5 3.7 3.8-3.4a34 34 0 0 0 3.7-3.8c0-.8-.8 0-4 3.4m7.2-1.7q0 2.2.5 1.3c.2-.7.2-1.9 0-2.6q-.5-.8-.5 1.3m14.8-1.5q0 .5.5.5t.5-.5q-.1-.6-.5-.5t-.5.5m60.3 3q0 3.5.4 1.7.4-2.6 0-4c-.4-1.4-.5.1-.4 2.3m-203-.8a1 1 0 0 0 1.4 0q.4-.7-.7-.7c-1.1 0-1 .3-.7.7m146.7-.2q0 .5.5.5t.5-.5q-.1-.6-.5-.5t-.5.5m3 1q0 .5.5.5t.5-.5q-.1-.6-.5-.5t-.5.5m71.3 4.5c0 3 .2 4.3.4 2.8s.2-4 0-5.6-.4-.2-.4 2.8m-216.7-3.1c-.4.6 1.6 7.7 4.5 15.8s5.5 16.2 6 18c.9 2.9 2.9 5.5 2.9 3.8 0-3.4-10.4-36-12-37.8q-.7-.7-1.4.2m150.7-.2c1 .2 2.3.2 3 0s-.2-.5-1.8-.5-2.2.2-1.2.5m-166 1a1 1 0 0 0 1.4 0q.4-.6-.7-.7c-1.1-.1-1 .3-.7.7m126.8 7.7-8.3 8.3-1.3 11.3c-1.3 11.5-1 14.5 2.2 20 5 8.9 5.7 11.4 5.8 22 0 5.8-.4 12.3-.8 14.5l-.8 4 2.2-3.3c2.2-3.3 3.3-11.8 7.4-55.2l2.1-22.7c.4-4 .5-7.3.3-7.3s-4.2 3.8-8.8 8.4M162 217.5q0 .5.5.5t.5-.5-.5-.5-.5.5m35.2 13.7 6.7 19.2c1 2.8 2 4.6 2.3 4 .8-1.2-11.6-36.7-13-37.1-.5-.2 1.3 6 4 14m-8.5-12.3c-.7 2-2.7 27.9-2.7 35.2v5.6l7.3-2c4-1 7.7-2 8.3-2.3 1-.3-3.2-13.1-11.8-36.6q-.6-1.8-1.1.1m131.6 3q0 4 .4 2.3a17 17 0 0 0 0-4.5q-.3-1.8-.4 2.2m-139 2q0 4 .4 2.3a17 17 0 0 0 0-4.5q-.3-1.8-.4 2.2m123.6-.2-3.4 3.7 3.8-3.4a34 34 0 0 0 3.7-3.8c0-.8-.8 0-4 3.5m59-3.3q0 .5.5.5t.5-.5q-.1-.6-.5-.5t-.5.5m-199.5 7.8a45 45 0 0 0-.3 8.9c.3.7.8-2.5 1.2-7s.5-8.7.2-9-.7 3-1.1 7.1m5.1-6.5c-.2.4-1.2 8.9-2 18.7s-1.9 20.4-2.2 23.3l-.7 5.4 5-2.6c6-3 5.7-2.3 7.3-23.6l1.5-18.2.5-3.8h-4.4c-2.5 0-4.7.4-5 .8m199.7-.1c1 .2 2.3.2 3 0s-.2-.5-1.8-.5-2.2.2-1.2.5M227.6 225a326 326 0 0 0-2.6 19.2q0 1.5 2.4 1c2.5-.5 2.5-.6 2.2-11.4-.3-11.2-1-14.6-2-8.8m148.8 11.7c-8.7 8.2-16.6 15.7-17.4 16.8s2.5-1.8 7.5-6.3c15.3-14 27-25.2 26.4-25.3-.3 0-7.7 6.7-16.5 14.8m18.8-9.8q0 3 .5 1.8c.2-1 .2-2.6 0-3.6s-.5-.1-.5 1.8m-210.1.6q0 1.7.6.6.4-1.2-.1-2c-.5-.7-.6.3-.5 1.4m191.5 13.1c-8.7 8.1-15.3 14.9-14.7 15.1s7.8-6 16-14c13-12.2 16.3-15.8 14.8-15.8-.1 0-7.4 6.6-16 14.7m35.8-4.7c-.3 5.6-.5 10.4-.2 10.6.3.3.8-4 1.2-9.6s.5-10.3.2-10.6-.8 4-1.2 9.6m-136.4-3.4c-1.2 1.5-2 3.2-2 3.8s.5.2 1-.9c.7-1.1 1.9-2.8 2.7-3.7s1.2-1.8 1-1.8c-.4 0-1.6 1.2-2.7 2.6m43.1.4q0 3 .5 1.8c.2-1 .2-2.6 0-3.6s-.5-.1-.5 1.8m71.6-1.2c-.2.5-6 6-13 12.4l-12.6 11.6 3.6.4c3.3.4 4.3-.2 13.4-8.6 9-8.4 9.8-9.3 9.8-12.8q0-5.5-1.2-3M231.3 238c0 3 .2 4.3.4 2.8s.2-4 0-5.6-.4-.2-.4 2.8m163-2q0 3 .4 1.8c.2-1 .2-2.6 0-3.6s-.5-.1-.5 1.8m-214.1 1.6q0 1.7.6.6.4-1.2-.1-2c-.5-.7-.6.3-.5 1.4m68.2 0a1 1 0 0 0 1.4 0q.4-.5-.7-.6c-1.1-.1-1 .3-.7.7m-26.3.8q0 .5.5.5t.5-.5-.5-.5-.5.5m51 0q0 .5.5.5t.5-.5q-.1-.6-.5-.5t-.5.5m45.3 4.5q0 4 .4 2.3c.2-1.3.2-3.3 0-4.6q-.4-1.6-.4 2.3m-155.8 7c-.3 5.6-.5 10.4-.2 10.6.3.3.8-4 1.2-9.6s.5-10.3.2-10.6-.8 4-1.2 9.6m21.7-7.5q0 2.6.5 1.2c.5-1.4.2-2.3 0-3s-.5.1-.5 1.8m87.4-1q-1.4 4 .5 1.2 1-1.7.6-2.3-.4-.3-1 1.1m-53.7 2q0 .5.5.5t.5-.5-.5-.5-.5.5m164.5 7.1-8 7.6 7.1-6c6.7-5.8 10.1-9.2 9.3-9.2-.3 0-4 3.4-8.4 7.6M179.3 248q0 4 .4 2.3c.2-1.3.2-3.3 0-4.6q-.3-1.6-.4 2.3m214-1q0 3 .4 1.8c.2-1 .2-2.6 0-3.6s-.5-.1-.5 1.8M270 245.5q0 .5.5.5t.5-.5q-.1-.6-.5-.5t-.5.5m-56.7 1.2c1 .2 2.5.2 3.4 0q1.3-.5-1.7-.5c-3 0-2.7.2-1.7.5m27.5 0c1.8.2 4.5.2 6 0s0-.4-3.3-.4-4.5.2-2.7.4m-13.5 1a1 1 0 0 0 1.4 0q.4-.7-.7-.7c-1.1 0-1 .3-.7.7m3.5 0q1.2.4 2-.1c.7-.5-.3-.6-1.4-.5q-1.7 0-.6.6m26.3-.3c.2.2 3.1.6 6.4 1q6 .4 3-.3c-3-.9-10.2-1.4-9.4-.7m39 1.2q0 1.7.6.6.4-1.2-.1-2c-.5-.7-.6.3-.5 1.4m-73.1-.1q0 .5.5.5t.5-.5-.5-.5-.5.5m160.6 5c-3.3 3-5.7 5.7-5.5 5.9s2.8.7 5.6 1c4 .6 5.4.5 5.7-.6.9-2.7 1.5-11.8.8-11.8a42 42 0 0 0-6.6 5.5m27.7-1q0 4.4.4 2.2.4-3.2 0-5c-.4-1.8-.4 0-.4 2.8m-228 .5q0 4 .4 2.3a17 17 0 0 0 0-4.5q-.3-1.8-.4 2.2m29.7-3.2q0 .8 1 2 .7 1.8 2-.7c1-1.8.8-2.1-1-2.1-1 0-2 .3-2 .8m61 .2c1.4.4 3.4.8 4.5.8q2.5 0-.5-.8c-1.4-.4-3.4-.8-4.5-.8q-2.5 0 .5.8m43.3 3.5q0 4.4.4 2.2.4-3.2 0-5c-.4-1.8-.4 0-.4 2.8m-92-2.8q-3.2.5-4.4 2.4-1 2-.7 2.4c1 1 17.8 8.5 19 8.5q1.5 0 0 .9c-2 1.2-8.3-.4-15.2-4a29 29 0 0 0-8-2.9c-3.7 0-3 1.8 1.6 3.5a43 43 0 0 1 18 18.6l3.2 6.2 2-4c4.7-9.2 18-18.5 28.4-20 2.7-.3 4.8-.4 4.8 0s-3.5 2.1-7.7 4.2c-10.1 5-20.2 14.8-22.6 22q-3 9-.3 13c1.2 1.7 1.4 1.5 2-1.9 1.8-9.6 8-18.4 16.5-23.4 4-2.3 5.7-2.7 12.1-2.7q18.3 0 25.6 16l2.4 5v-7.6q0-13-5.2-20c-1.4-1.9-2.3-4-2-4.7.8-2.3-2-4.2-9.8-6.6a142 142 0 0 0-42.6-5.4c-7.7 0-15.4.3-17.1.5m56 1a1 1 0 0 0 1.4 0q.4-.7-.7-.7c-1.1 0-1 .3-.7.7m40.7.3q0 1.1.7.7a1 1 0 0 0 0-1.4q-.6-.4-.7.7m-37.7.7a1 1 0 0 0 1.4 0q.4-.7-.7-.7c-1.1 0-1 .3-.7.7m3 1a1 1 0 0 0 1.4 0q.4-.7-.7-.7c-1.1 0-1 .3-.7.7m2.7.7q.1.4 1.6 1 1.3.5.9-.4c-.6-1-2.5-1.4-2.5-.6m102.2 3.6q0 3 .5 1.8c.2-1 .2-2.6 0-3.6s-.5-.1-.5 1.8m-214 .5q0 2.6.5 1.2c.5-1.4.2-2.3 0-3s-.5.2-.5 1.8m25.8-1q0 .5.5.5t.5-.5q-.1-.6-.5-.5-.6.1-.5.5m151 .6c0 .5 3.9.9 8.7.9s8.4-.2 8-.5c-.9-1-16.7-1.4-16.7-.4m-155.7.6a1 1 0 0 0 1.4 0q.4-.6-.7-.7c-1.1-.1-1 .3-.7.7m-3.3.8q0 .5.5.5t.5-.5q-.1-.6-.5-.5-.6.1-.5.5m-4 1q0 .5.5.5t.5-.5q-.1-.6-.5-.5-.6.1-.5.5m7.5 1.5c-3.8 1-10.1 3-14 4.3l-6.8 2.3 4.5 2.7c2.4 1.4 6 4.5 8 7 4.2 5 10.3 16.7 11.3 21.5.5 2.6 1 3.2 2.3 2.7 4.3-1.8 8.8-2.2 20-1.7 14.1.6 13.6 1.1 9.6-9.8a52 52 0 0 0-17.8-26c-6.5-5-8.6-5.3-17.1-3m121.6-.4q0 1.7.6.6.4-1.2-.1-2c-.5-.7-.6.3-.5 1.4m35.6-1c-.4.4-.7 13-.7 28V316h12.7l.6-10.7c.4-5.8.7-18.2.7-27.5V261h-3.4c-1.8 0-4.6-.3-6.2-.6s-3.2-.2-3.7.2m15.3 9.6c0 5.7-.3 18.3-.7 28-.4 11.5-.2 17.8.4 17.8s1.2-7.9 1.6-19.7c1-27.4.9-36.3-.3-36.3-.6 0-1 4-1 10.3m38.3-6.3q0 4 .4 2.3c.2-1.3.2-3.3 0-4.6q-.3-1.6-.4 2.3M187 262q-1.2.9-.5 1 1.2-.1 2.5-1c1.3-.9 1-1 .5-1s-1.7.5-2.5 1m-25.7 5c0 3 .2 4.3.4 2.8s.2-4 0-5.6-.4-.2-.4 2.8m154.9-2.5q0 2.6.5 1.2c.5-1.4.2-2.3 0-3s-.5.2-.5 1.8m64-1.8c1.6.2 3.8.2 5 0s0-.4-2.7-.4-3.8.2-2.2.4m11.7-.2q0 .5.5.5t.5-.5q-.1-.6-.5-.5t-.5.5m-208.7 1.2a1 1 0 0 0 1.4 0q.4-.6-.7-.7c-1.1-.1-1 .3-.7.7m140.7.4c0 .5 4.9.9 10.9.9s12.4.2 14.2.5q5 .8.4-.4c-4.1-1.2-25.5-2-25.5-1m-99.4 6c5.5 5.9 6.7 7.7 10.1 15.4 1.2 2.8 2.2 4.3 2.2 3.5 0-4.6-8.8-18.4-14.2-22.2-2.5-1.7-2-1 1.9 3.3m137-4.4c-.3.3-.6 11.4-.6 24.6 0 18.6.3 23.8 1.3 23.5.6-.3 1.3-1.8 1.4-3.4q.5-4.1-.7-.4-.7 2.7-.9-7 0-9.6.9-8t1-12.2c0-7.6-.4-14-1-14.3q-.8-.6-.3-2 .6-2.5-1-.8m-106.3 4.1a37 37 0 0 0-14 15.6c-2.3 5.8-1.5 6.6 1 1a42 42 0 0 1 15.2-16.9q5.8-3.4 4-3.5c-.1 0-3 1.7-6.2 3.8m125.4-3h6c1.5-.3 0-.5-3.3-.5s-4.5.2-2.7.4m10.4 2.3q0 3 .5 1.8c.2-1 .2-2.6 0-3.6s-.5-.1-.5 1.8m-68.2-1.3c0 1 28 2.7 28.8 1.8 1.1-1-.9-1.4-14.6-2-9.1-.5-14.2-.4-14.2.2m89.7 7.6a2593 2593 0 0 0-.3 114.4c.3.4.6-11.5.6-26.3s.3-42.3.7-61.1q.9-49.6-1-27m-243.3-5.1q-.6 1 .4.4 1.1-.7 1.2-1.2c0-.8-.9-.4-1.6.8m150.8 1.3q0 2.6.5 1.2c.5-1.4.2-2.3 0-3s-.5.2-.5 1.8M377 270c0 .6 2.7 1 6.3.9 5-.1 5.6-.3 3.2-.9-4.5-1.1-9.5-1.1-9.5 0m-61.7 3.5q0 3.5.4 1.7.4-2.6 0-4c-.4-1.4-.5.1-.4 2.3m-148.3-2q0 .5.5.5t.5-.5q-.1-.6-.5-.5-.6.1-.5.5m10 0q0 .5.5.5t.5-.5q-.1-.6-.5-.5-.6.1-.5.5m145.5 6c-.4 3.6-.5 6.8-.2 7 .6.7 28.7 2.2 29.3 1.6.2-.2.4-3.4.4-7.1v-6.7l-3.8-.7c-2-.3-8.5-.6-14.4-.6h-10.6zm-162-2.4c-2.6 1.6-8.3 6.2-12.5 10.2L135 297a23 23 0 0 0-5.6 6.5q-.4 1.6 1.4-1.1c1.1-1.8 3.7-4.5 5.8-6s7-5.9 10.9-9.5 9.6-8.3 12.8-10.4c5-3.3 6.4-4.5 5.4-4.5zm18.4-2.5q0 .5.5.5t.5-.5q-.1-.6-.5-.5-.6.1-.5.5m-14.7 4.4a242 242 0 0 0-27.9 24c-4.6 4.3-5.8 8.9-4.8 18.9a51 51 0 0 1-1 14c-2.3 12-2 22.8 1 41 2 11.1 2.8 19.6 2.8 29 0 11.5.3 13.2 1.7 13.2 2.2 0 7.9 5.4 7.9 7.4 0 1.7 4.1 3.2 6.3 2.3 1-.4 1.5-5.7 2-24.2l.6-23.7 3-5.7c5.6-10.8 6.1-20.4 2-38-1-4.5-1.9-9-1.9-10 0-3 12.4-8.1 19.8-8.1s15.8-1.6 19-3.7c2.3-1.4 2.4-2 2-7.7-.6-6.6-4-14.6-9.7-22.4-3.5-4.8-11.3-10.2-14.6-10.2-1.2 0-4.9 1.7-8.2 3.9m17.2-2.9q.6 1 1.1 1c.5 0 .2-.4-.1-1s-.8-1-1.1-1-.2.5.1 1m121.5 0q0 1.1.7.7a1 1 0 0 0 0-1.4q-.6-.4-.7.7m74.6 2.1a47 47 0 0 0-.6 7.5v4.4h4.9c4.8 0 4.8 0 5.5-3.7.3-2.1.6-5.5.6-7.6V273H383c-4.6 0-4.9.1-5.5 3.1m31.7 1.4q0 4.4.4 2.2.4-3.2 0-5c-.4-1.8-.4 0-.4 2.8m-224.2-1c.7 1.1 2.6 3.5 4.1 5.3a58 58 0 0 1 10 20.2c1.6 5.7 1.7 6 1.3 2a61 61 0 0 0-12.5-25c-2.3-2.5-3.6-3.6-2.9-2.5m79.1 1c-4.3 1.9-4.1 2.8.3 1 4-1.7 12.4-2 17.6-.5a28 28 0 0 1 14.5 13.4c1.3 2.8 2.4 4.4 2.4 3.6 0-3.6-6.6-12.5-11.4-15.5-4.2-2.5-6-3-12.5-3.3q-7.6-.2-10.9 1.2m2.4 3c-4.8 1.8-11.4 8-11.4 11l-.8 11.1c-.6 7.9-.4 9.7 1.4 14 1.2 2.8 3 8.3 4.2 12.4 2.1 7.2 2.1 7.6.4 14-.9 3.6-1.9 11.6-2.1 17.6a34 34 0 0 0 3.3 20.5c3.8 9.4 3.8 9.6 4.2 26 .2 9.6 0 18.2-.6 20.3l-1 3.7h4.2c4.7 0 9 2.6 10.1 6 1.5 4.7 2.3 1.3 1.8-7.7-.6-10.7 1.6-23.7 8-47.8a73 73 0 0 0 3-23.5c0-9.8-.3-12.7-2.6-19.5a46 46 0 0 1-2.7-14.6c0-6.3.2-7 3.9-11.4 8.5-10.3 7.5-21.8-2.7-28.9a21 21 0 0 0-20.6-3.1m47.7 2q0 3.5.4 1.7.4-2.6 0-4c-.4-1.4-.5.1-.4 2.3m4.7-2.5q0 1.1.7.7a1 1 0 0 0 0-1.4q-.6-.4-.7.7m-62.6 3.2-2.9 3.3 3.3-3c3-2.7 3.7-3.5 2.9-3.5a25 25 0 0 0-3.3 3.2m48.8.8q0 3.1.5 1.7c.2-1 .2-2.5 0-3.5s-.5-.1-.5 1.8m14 0q0 2.2.5 1.2c.2-.6.2-1.8 0-2.5q-.5-.8-.5 1.3m89 3.5c0 2.7.3 3.8.5 2.2s.2-3.7 0-5-.4 0-.4 2.8m-89.3.3c0 .5 7.5 1.3 16.6 1.7 17.9.7 23.8 0 7.7-1-5.4-.2-13-.8-17-1-4.1-.4-7.3-.2-7.3.3m-67 .7q0 .5.5.5t.5-.5q-.1-.6-.5-.5-.6.1-.5.5m137.2 3q0 2.6.5 1.2c.5-1.4.2-2.3 0-3s-.5.1-.5 1.8m-76 1.5q0 3.1.5 1.7c.2-1 .2-2.5 0-3.5s-.5-.1-.5 1.8m66-2.3c1.6.2 4 .2 5.6 0s.2-.4-2.8-.4-4.3.2-2.7.4m-142.3.8q0 .5.5.5t.5-.5q-.1-.6-.5-.5-.6.1-.5.5m81 0q0 .5.5.5t.5-.5q-.1-.6-.5-.5t-.5.5m1.7 9.7a742 742 0 0 0-4.7 59c0 3.9.3 4.8 1.8 4.9l14 1.3c6.8.7 12.5 1 12.7.7s.5-11.5.5-25c0-26.4 0-26.2 5.3-29.4 2.6-1.7 2.7-2 2.7-10.7 0-4.9-.3-9-.7-9.3-.5-.3-7.4-.8-15.4-1.2l-14.6-.7zm-70.2-8.1q-.6 1-.2 1.5c.4.5.7-.2 1-1 .7-1.8.1-2.1-.8-.5m-10.5.4q0 .5.5.5t.5-.5q-.1-.6-.5-.5-.6.1-.5.5m139.5.5c1.1.5 3.4.8 5 .8q4.4.2.5-.8c-1.4-.4-3.6-.8-5-.8q-3.3-.2-.5.8m28.8 4c0 3 .2 4.3.4 2.8s.2-4 0-5.6-.4-.2-.4 2.8M304 296.6q0 1.7.6.6.4-1.2-.1-2c-.5-.7-.6.3-.5 1.4m-65 1.9q.2 2.6.6 1.2.4-2 0-3c-.4-1-.5.2-.5 1.8m8.8-2q0 .5.5.5t.5-.5q-.1-.6-.5-.5-.6.1-.5.5m129.7.2a24 24 0 0 0-.7 7.2c0 6.5 0 6.7 3 7.8s3 1.3 3.1 8l.2 6.8 1.2-10c.7-5.5 1.4-12 1.4-14.6 0-4-.2-4.7-2.2-5.3q-4.6-1.2-6 0m-78.5 2.9q0 2.6.5 1.2c.5-1.4.2-2.3 0-3s-.5.2-.5 1.8m12.8-.8c0 .9-2 3.6-4.6 6s-4.2 4.3-3.7 4.3c1.6 0 9.3-8.7 9.3-10.5q0-1.3-.5-1.5c-.5-.2-.5.8-.5 1.7m76.3 3.8q0 4.4.4 2.2.4-3.2 0-5c-.4-1.8-.4 0-.4 2.8m-137 3.5q0 4 .4 2.3c.2-1.3.2-3.3 0-4.6q-.3-1.6-.4 2.3m64.1-2.8q-.6 1 .4.4 1.1-.7 1.2-1.2c0-.8-.9-.4-1.6.8m-107.7 1.4c-3.8 2-3.4 2.6.7.9 2.5-1 6.5-1.3 15.2-1 9.1.3 10.5.2 5.9-.5a48 48 0 0 0-21.8.6m29 1c.7.3 1.9.3 2.5 0q1-.4-1.2-.4c-2.2 0-2 .2-1.3.5m79.4.9q0 1.7.6.6.4-1.2-.1-2c-.5-.7-.6.3-.5 1.4m90.2 2.9c0 2.7.2 3.8.4 2.2s.2-3.7 0-5-.4 0-.4 2.8M128 307q0 1.1.7.7a1 1 0 0 0 0-1.4q-.7-.4-.7.7m113-.6q.1.4 1.6 1 1.3.5.9-.4c-.6-1-2.5-1.4-2.5-.6m-32.3 1.3c-2 .5-3.7 4.1-3.7 7.8 0 2.2.4 2.3 9.7 3l19.5 1.3 9.8.8v-4.7q0-4.5-1.5-5.9c-2.3-1.9-28.4-3.7-33.8-2.3m83.4 4.2c-2 2.5-2.7 4-1.7 3.2 2-1.7 6-7 5.5-7.5-.2-.2-2 1.7-3.8 4.3m-14.4-2.5c-.4.9-.4 2.9 0 4.4.2 1.6 0 4.6-.6 6.7q-2 7.5 2.5 2.2c3-3.5 3.2-9.4.6-12.7-1.6-2-2-2.1-2.5-.6m33.4.2q0 1.7.6.6.4-1.2-.1-2c-.5-.7-.6.3-.5 1.4M203 310q0 1.1.7.7a1 1 0 0 0 0-1.4q-.7-.4-.7.7m97-.5q0 .5.5.5t.5-.5q-.1-.6-.5-.5t-.5.5m-22 1q0 .5.5.5t.5-.5q-.1-.6-.5-.5t-.5.5m27 .5q-2.4.7-2 2c.2.9.6 4.7.8 8.5.3 6 0 7.5-1.7 9.7-1.2 1.5-3.5 3-5.1 3.3s-3 .7-3 .8l1.5 5.7a74 74 0 0 1 1.2 29.3l-1.3 7.8 3.5-.3c3.3-.3 3.6-.6 4.3-4.3 1.1-6.3 5-56 4.6-59.8-.3-3-.5-3.2-2.8-2.7m-6 .5q0 .5.5.5t.5-.5q-.1-.6-.5-.5t-.5.5m88.2 1.5q0 2.2.5 1.2c.2-.6.2-1.8 0-2.5q-.5-.8-.5 1.3m-260 1q0 2.2.5 1.2c.2-.6.2-1.8 0-2.5q-.5-.8-.5 1.3m75 1.5q.1 3.5.5 1.7.5-2.6 0-4c-.5-1.4-.5.1-.4 2.3m49.7-3c0 .5.5 1.7 1 2.5s1 1 1 .5-.5-1.7-1-2.5-1-1-1-.5m27.3 3.5q0 4 .4 2.2.4-2.6 0-4.5-.4-1.6-.4 2.3m36 1.5c0 2.7.2 3.8.4 2.2s.2-3.7 0-5-.4 0-.4 2.8m64.7-3q0 .5.5.5t.5-.5q-.1-.6-.5-.5t-.5.5m-187.5 2q-2.6 1.3-1.5 1.4 1.8 0 4-1.4c3.2-1.8 1.5-1.8-2.5 0m117.8 3c0 2.7.2 3.8.4 2.2s.2-3.7 0-5-.4 0-.4 2.8m-63.8-1.6q-1 3.8 3.4 4 1.7.4-.1-1.7c-.9-1-1.8-2.4-2-3.2q-.5-1.6-1.3.9M347 317c0 .4 4.8 1 10.8 1.4 14.3.9 14.2.8 14.2 5.6 0 2.1.5 3.9 1 3.9s1-2 1-4.4c0-3.3.5-4.7 2.3-6l2.2-1.8-2.5 1.4c-2 1.2-4.8 1.2-15.7.3-7.3-.5-13.3-.7-13.3-.4m-91.2 5.4c.8 3 1.7 5.3 2 5.1.5-.5-2-9.6-2.8-10-.4-.3 0 2 .8 5m36-4q-1.9 2.3 1 .5 3.6-2 1.3-2.1-1 .1-2.2 1.7m113.4 2.8c0 2.7.2 3.8.4 2.2s.2-3.7 0-5-.4 0-.4 2.8m-218-2.8a1 1 0 0 0 1.4 0q.4-.6-.7-.7c-1.1-.1-1 .3-.7.7m107 2.2c-3.6 3-4.2 5.5-1.7 6.5 4.5 1.7 6.4-.1 6.4-6.7 0-3.4-.7-3.3-4.7.2m-166 1.6q0 3.5.4 1.7.4-2.6 0-4c-.4-1.4-.5.1-.4 2.3m38.2-1.6c-2.2 1-3.5 2-3 2 1.4 0 9.3-3.7 8-3.8-.5 0-2.8.8-5 1.8m24.5-.2c-2.5.6-5.7 1.2-7.2 1.2s-2.8.4-2.8.9l-2 27.6c-1 14.8-1.8 27.1-1.6 27.4s10.8-4.9 23.5-11.2c19.2-9.7 23.8-11.6 27.6-11.6 4.3 0 4.5-.1 4.5-2.8 0-2.3-1.5-4.1-8.4-10-6.3-5.3-8.5-7.8-8.8-9.9-.3-2.6-.7-2.8-6.2-3.5-6.6-.8-9.9-2.6-12.4-6.6-1.6-2.6-1.8-2.7-6.2-1.5m7-1.2q0 .5.5.5t.5-.5q-.1-.6-.5-.5-.6.1-.5.5m148.3 4q0 3.5.4 1.7.4-2.6 0-4c-.4-1.4-.5.1-.4 2.3m2.7-.1c0 3 .3 3.4 3.8 4 2 .3 7 .6 11 .6h7.2v-3.4c0-3-.4-3.4-3.1-4a89 89 0 0 0-11-.6H349zm28.2-1.4q0 2.2.5 1.3c.2-.7.2-1.9 0-2.6q-.5-.8-.5 1.3m-170.8-.2c.3.6 7.7 1.3 16.3 1.7 9.9.5 18.6 1.4 23.2 2.6q10 2.5 8 .5c-1-1-16.3-3.5-24.9-4l-16.4-1.2c-4.2-.3-6.6-.2-6.2.4m71.6-.3q0 .5.5.5t.5-.5q-.1-.6-.5-.5t-.5.5m-99.7 5.5c0 3 .2 4.3.4 2.8s.2-4 0-5.6-.4-.2-.4 2.8m208-1q0 4 .4 2.3c.2-1.3.2-3.3 0-4.6q-.3-1.6-.4 2.3M161 323.5q0 .5.5.5t.5-.5q-.1-.6-.5-.5-.6.1-.5.5m5 1.2c-2 .8-3.6 1.6-3.8 1.8s.7 4 2 8.6a68 68 0 0 1 2.2 18.9c0 9.2-.3 11.2-2.6 16.5a41 41 0 0 0-3.2 15.1l-.7 9.2 2.8.5c1.6.3 2.9.5 3 .4.2-.3 5.3-66.1 5.3-69.5 0-3.6-.1-3.6-5-1.5m135.2.8q0 2.6.5 1.2c.5-1.4.2-2.3 0-3s-.5.2-.5 1.8m-143.2-1q0 .5.5.5t.5-.5q-.1-.6-.5-.5-.6.1-.5.5m218.9 2.6-2.4 2 2.8-1.7a10 10 0 0 0 2.7-2q.2-1.3-3.1 1.7m-166.6-.4a1 1 0 0 0 1.4 0q.4-.6-.7-.7c-1.1-.1-1 .3-.7.7m3.7-.2q0 .5.5.5t.5-.5q-.1-.6-.5-.5-.6.1-.5.5m-86 1q0 .5.5.5t.5-.5q-.1-.6-.5-.5-.6.1-.5.5m93 3v3.5h7.9c7.8 0 7.9 0 8.4-2.7.3-1.6.3-3.1 0-3.5s-4-.8-8.4-.8H221zm93.3 1.5c0 3 .2 4.3.4 2.8s.2-4 0-5.6-.4-.2-.4 2.8m-73.5-.6c-.5 2.2.4 3.2 6.4 7.6l6.8 5 1-2.6c2.2-5.7 1.5-7-5.2-9.4l-7.4-2.7c-.6-.2-1.4.7-1.6 2.1m59.2-1.9q0 .5.5.5t.5-.5q-.1-.6-.5-.5t-.5.5m9.3 4.5c0 3 .2 4.3.4 2.8s.2-4 0-5.6-.4-.2-.4 2.8m39.7-.5v4.5l9.5.2 10.8.2q1.1-.1 1.5-4l.3-4.1-7.7-.6c-4.2-.4-9.2-.7-11-.7-3.4 0-3.4 0-3.4 4.5m23.7-3.8c-1 1-.8 8.3.3 8.3.6 0 1-2 1-4.5 0-4.6-.2-5-1.3-3.8m4.5 2.3q0 3.1.5 1.7c.2-1 .2-2.5 0-3.5s-.5-.1-.5 1.8m27 1q.1 4 .5 2.2.4-2.6 0-4.5-.3-1.6-.4 2.3M159 330.5q0 .5.5.5t.5-.5q-.1-.6-.5-.5-.6.1-.5.5m63.4.6c-.6 1.1 3.3 1 6.1 0q2.4-1-1.8-.9c-2 0-4 .4-4.3.9m-95.3 1.5q0 1.7.6.6.4-1.2-.1-2c-.5-.7-.6.3-.5 1.4m218.9 1.8c0 2 .3 3.7.8 4s.6-1.3.4-3.5c-.5-4.8-1.2-5.1-1.2-.5m-53-1.9q0 .5.5.5t.5-.5q-.1-.6-.5-.5-.6.1-.5.5M160 334q0 1.1.7.7a1 1 0 0 0 0-1.4q-.6-.4-.7.7m99 0q0 1.1.7.7a1 1 0 0 0 0-1.4q-.6-.4-.7.7m126.2 1q0 2.3.5 1.2c.2-.6.2-1.8 0-2.5q-.5-.8-.5 1.3m-208 3.5c0 2.7.3 3.8.5 2.2s.2-3.7 0-5-.4 0-.4 2.8m-51.1-1.5q0 2.3.5 1.2c.2-.6.2-1.8 0-2.5q-.5-.8-.5 1.3m249.6.6c-3.2 2.3-4.7 2.7-10.5 2.6-3.8 0-9-.4-11.6-.7l-4.7-.7v9l10.2.5c5.7.3 10.4.4 10.5.3l.5-3.9c.3-5 1.8-4.7 1.8.4 0 2.4.4 3.8 1 3.4s1-2.4 1-4.5c0-3.4.5-4.3 3.7-6.5 2-1.4 3.3-2.5 2.8-2.5a17 17 0 0 0-4.7 2.6m-148.8-.3 4.7 4.2c3.3 2.8 5.5 3.9 7.7 3.8q3.2-.1.8.4c-4.9 1-1.8 2.3 5.5 2.3h7.6l-7.4-4.9c-6-4-8.5-5-13.1-5.5a28 28 0 0 0-5.8-.3m64 1.2q0 .5.5.5t.5-.5q-.1-.6-.5-.5t-.5.5m89.2 1.5q0 2.2.5 1.3c.2-.7.2-1.9 0-2.6q-.5-.8-.5 1.3m4.9-.4q0 1.7.6.6.4-1.2-.1-2c-.5-.7-.6.3-.5 1.4m20.6 10c-1 16.5-.9 39.4.3 39.4.6 0 1-9 1-25 0-13.7-.2-25-.3-25s-.7 4.8-1 10.7M346 341q0 1.1.7.7a1 1 0 0 0 0-1.4q-.7-.4-.7.7m31.2 1.5q0 2.6.5 1.2c.5-1.4.2-2.3 0-3s-.5.1-.5 1.8M403 341q0 1.1.7.7a1 1 0 0 0 0-1.4q-.7-.4-.7.7m-277.7 4q0 4 .4 2.2.5-2.6 0-4.5-.3-1.6-.4 2.3m166.7-3.5q0 .5.5.5t.5-.5q-.1-.6-.5-.5t-.5.5m16.3 5.5c0 3 .2 4.3.4 2.8s.2-4 0-5.6-.4-.2-.4 2.8m5-1q0 4 .4 2.3c.2-1.3.2-3.3 0-4.6q-.4-1.6-.4 2.3m-56.2-1.4q0 1.7.6.6.4-1.2-.1-2c-.5-.7-.6.3-.5 1.4m89 12.5c-.1 7.9 0 14 .3 13.8.7-.7 1-27 .3-27.6-.3-.2-.6 6-.6 13.8m57.1-11.1q0 3 .5 1.8c.2-1 .2-2.6 0-3.6s-.5-.1-.5 1.8M293 345q0 1.1.7.7a1 1 0 0 0 0-1.4q-.6-.4-.7.7m82.7 2.7c-3 2.3-3.6 3.4-3.7 6.5 0 2.1.5 3.8 1 3.8s1-1.8 1-4c0-3.2.5-4.2 3-6l3-2.1.1 2.3q0 2.8.6.4c.9-3.4-1.2-3.7-5-.9m8.3-.2q0 .5.5.5t.5-.5q-.1-.6-.5-.5t-.5.5M163.3 353c0 3 .2 4.3.4 2.8s.2-4 0-5.6-.4-.2-.4 2.8m130.9-2.5q0 2.6.5 1.2c.5-1.4.2-2.3 0-3s-.5.2-.5 1.8m54.8 3v4.5l4.8.1 10.4.3 5.6.1.4-3.7.3-3.7-6-.6-10.8-1.1-4.7-.6zm35-4q0 .5.5.5t.5-.5q-.1-.6-.5-.5t-.5.5m-259 5.6c0 3 .5 7.2 1 9.4q.8 4.1.3-5c-.6-10.1-1.3-12.6-1.2-4.4m51.2-.6q0 4.4.4 2.2.5-3.2 0-5c-.5-1.8-.4 0-.4 2.8m62.2-3.5c-1 1.7-.4 2 6.7 2.7 5.4.5 6.6.3 7.1-1s0-1.7-3.2-1.7a48 48 0 0 1-6.9-.6q-2.8-.5-3.7.6m138.7 1q0 2.2.5 1.3c.2-.7.2-1.9 0-2.6q-.5-.8-.5 1.3m-69.9 6c0 3 .2 4.3.4 2.8s.2-4 0-5.6-.4-.2-.4 2.8m72.7-4.3c0 .6-1.8 2.3-4 3.8-4 2.8-4.2 2.8-15.4 2.2l-11.4-.5-.4 3.9c-.2 2.2 0 4 .7 4l10.8.8 9.7.6v-3.2c0-1.7.4-3.5 1-3.8q1-.4 1 3c0 3.4.4 3.4 1 3s1-2.1 1-4c0-2.6.8-4 3.8-6.3 2-1.7 3.4-3.4 3-3.8q-.8-.6-.8.3M255.2 356q0 2.2.5 1.3c.2-.7.2-1.9 0-2.6q-.5-.8-.5 1.3m57 2q.1 4 .5 2.3c.2-1.3.2-3.3 0-4.6q-.4-1.6-.4 2.3m90-.5q0 3.5.4 1.7.4-2.6 0-4c-.4-1.4-.5.1-.4 2.3m-231 2q0 4.4.4 2.2.5-3.2 0-5c-.5-1.8-.4 0-.4 2.8m55-2.8a1 1 0 0 0 1.4 0q.4-.7-.7-.7c-1.1 0-1 .3-.7.7m11.7.8c0 1.2 1.4 1.5 7 1.5 5.3 0 7-.3 6.8-1.3-.3-.7-3-1.3-7.1-1.5-5.5-.2-6.7 0-6.7 1.3m145-1q0 .5.5.5t.5-.5q-.1-.6-.5-.5t-.5.5m-161.4 2q-1.7 1.4-1 1.5c.7.1 1.9-.7 3-1.5q1.7-1.3.9-1.4-1.3 0-3 1.4m9.3-.8q1.2.4 2-.1c.7-.5-.3-.6-1.4-.5q-1.7 0-.6.6m-34.2 13.2L175 381.7l-.4-3.6q-.5-5.4-.5.6c-.1 2.4 0 4.3.3 4.3 1 0 44.5-22 44.5-22.5 0-1-1.2-.4-22.4 10.4m3.2 2.7c-24.7 12.7-26.6 13.8-27 16.5-.3 1.6-.2 2.8.1 2.7l28.6-15c15.4-8 28.8-15 29.8-15.4q2.2-.7.5-1.5c-.7-.5-2.2-.9-3.3-.9s-14 6.2-28.7 13.6M377.2 362q0 2.2.5 1.3c.2-.7.2-1.9 0-2.6q-.5-.8-.5 1.3M162 362q0 1.1.7.7a1 1 0 0 0 0-1.4q-.6-.4-.7.7m75.2.7c.5 2.6 13.8 3.7 13.8 1.2 0-1.2-1.4-1.8-5.2-2.3-8.1-1-9-.8-8.6 1.1m-61.9 4.8c0 3.3.2 4.5.4 2.7s.2-4.5 0-6-.4 0-.4 3.3m226 0c0 3.3.2 4.5.4 2.7s.2-4.5 0-6-.4 0-.4 3.3m23.1 3 .1 9 4 .5c2.2.3 4.7 1 5.5 1.5q2 1.3.1-.8-1.4-1.6-5.2-1.7h-3.8l-.4-8.8-.3-8.7zM254 364q0 1.1.7.7a1 1 0 0 0 0-1.4q-.7-.4-.7.7m40.2 1.5q0 2.6.5 1.2c.5-1.4.2-2.3 0-3s-.5.1-.5 1.8m-63.2-.9c-.3.6-12.2 7.3-26.5 14.9-47.8 25.3-46.5 24.5-46.5 28.3v3.4l12.7-6.7 12.7-6.7 23.6 2.6 24.2 2.6q.8-.2.8-2c0-1.6-.7-2-3-2a858 858 0 0 1-41-4.6c-3-.5-3.2-.7-1.5-1.4 1.1-.4 9.2.1 18 1.1 27.7 3.2 28.5 3.2 28.5 2.2s-9.5-2.6-23.3-4c-3.7-.3-7-1-7.2-1.3s5.5-4 12.8-7.9c17.7-9.5 16.9-8.7 16.5-14.6-.2-2.8-.5-4.5-.8-3.9m76-.1q0 .5.5.5t.5-.5q-.1-.6-.5-.5t-.5.5m68.2 3.3c-2.4 2-3.2 3.5-3.2 6q0 3 1 2.7c.6-.3 1-1.9 1-3.5q0-2.9 3-5.4c1.8-1.4 2.8-2.6 2.3-2.6s-2.3 1.3-4 2.8m-62.4-.5c.5.5 3 .7 5.7.5l4.9-.3-5.7-.5c-3.1-.3-5.3-.1-4.9.3m-142.6 4.2c0 2.7.2 3.8.4 2.2s.2-3.7 0-5-.4 0-.4 2.8m66.7-1.6c0 3 0 3.1 5.3 3 7.4 0 9.6-.7 9-3-.4-1.4-1.4-1.9-4.3-1.9-2 0-5.2-.3-6.9-.6-3-.6-3.1-.5-3.1 2.5m18.2-.4q0 2.6.5 1.2c.5-1.4.2-2.3 0-3s-.5.2-.5 1.8m51-.5q0 2.2.5 1.3c.2-.7.2-1.9 0-2.6q-.5-.8-.5 1.3m-148 3.5c-3 6.2-2.7 7.1.4 1.2 1.4-2.7 2.4-5 2.2-5.3s-1.4 1.7-2.6 4.1m168-3.8c1.6.2 3.8.2 5 0s0-.4-2.7-.4-3.8.2-2.2.4m-199.1 2.8q0 2.6.5 1.2c.5-1.4.2-2.3 0-3s-.5.2-.5 1.8m111.8-2q0 .5.5.5t.5-.5q-.1-.6-.5-.5-.6.1-.5.5m97.3.2c1.5.2 4 .2 5.4 0s.3-.4-2.7-.4-4.3.2-2.7.4m12.3 1.8c-.4 1.5-.6 2.9-.4 3 .3.3 18.6 2.5 20.8 2.5 1.5 0 1.2-5.7-.4-6.3-.7-.3-5.4-.8-10.3-1.2l-9-.7zm33.7 1q0 3.5.4 1.7.4-2.6 0-4c-.4-1.4-.5.1-.4 2.3m-89.3-2q0 .5.5.5t.5-.5q-.1-.6-.5-.5t-.5.5m84 .5q0 1.1.7.7a1 1 0 0 0 0-1.4q-.7-.4-.7.7m-62.5.7A222 222 0 0 0 343 374c0-.4-3-1-6.7-1.3-9.1-.8-25.6-1.6-21.8-1m-71 2.2-7 .6 4.9.7q12 1.9 11-.7-.7-1.3-1.3-1.3zm12.5.1q0 1.1.7.7a1 1 0 0 0 0-1.4q-.6-.4-.7.7m51.8 2c-.5 3.6-1.8 3.2 22.4 5.5 20.8 1.9 19.8 1.9 19.8-.5q0-2-2-2c-1 0-2.5-.6-3.2-1.3a48 48 0 0 0-15.3-2.6c-7.7-.6-15.6-1.4-17.6-1.7-3.4-.5-3.7-.4-4.1 2.5m-179.6 1.6q0 2.6.5 1.2c.5-1.4.2-2.3 0-3s-.5.1-.5 1.8m248.8-2q0 .5.5.5t.5-.5q-.1-.6-.5-.5t-.5.5m23.3 5c0 2.7.2 3.8.4 2.2s.2-3.7 0-5-.4 0-.4 2.8m-179.6 2.6c-6 3.3-10.7 6.3-10.4 6.5s21.4-11 22.6-12.2c1.7-1.6-3 .5-12.2 5.7m36.4-5.6c0 .5.6 2.1 1.4 3.5s1.4 2 1.4 1.5-.6-2.1-1.4-3.5-1.4-2-1.4-1.5m-19.4 16.2c-2.5 22.2-2.5 21.5 2 21.1l3.8-.3 1.7-14.5c1-8 1.7-16.2 1.7-18.3.1-3.6 0-3.7-3.7-3.7h-3.8zm11.9-14.6c-.2.8-1.2 8.6-2.1 17.4s-1.9 17-2.2 18.2 0 2.3.5 2.3 1.2-3.3 1.6-7.3l2.2-19c.8-6.6 1.3-12.2 1-12.5s-.8.1-1 1m120.4-.7q0 .5.5.5t.5-.5q-.1-.6-.5-.5t-.5.5m11.2 2q0 2.6.5 1.2c.5-1.4.2-2.3 0-3s-.5.2-.5 1.8m-212.1 0q0 1.8.6.7.4-1.2-.1-2c-.5-.7-.6.3-.5 1.4m56.1 3a57 57 0 0 0-8 4.9c.2.1 3.8.6 8 1l7.7.7.6-4.6c.4-2.4.5-5 .4-5.5s-4.1 1-8.7 3.6M291 380q0 1.1.7.7a1 1 0 0 0 0-1.4q-.6-.4-.7.7m63.4.4c-.3.8-.4 3-.2 4.8l.3 3.3 6.3.3 6.2.3v-4.4c0-4.3 0-4.5-3.7-5-5.9-1-8.3-.8-8.9.7m4.2 1.1q-1.5 1.6-1.6 2 0 .5 1.6 2 1.7 1.8 3 .4c.8-.6 1.4-1.7 1.4-2.4s-.6-1.8-1.4-2.4q-1.3-1.4-3 .4M129.2 383c0 1.4.3 4.5.7 7q.9 5 1 1.5a50 50 0 0 0-.8-7q-.9-3.7-1-1.5m26.2 3.5c0 3.3.2 4.5.4 2.7s.2-4.5 0-6-.4 0-.4 3.3m98.9-3.5q0 2.2.5 1.3c.2-.7.2-1.9 0-2.6q-.5-.8-.5 1.3m46.8-1c3.6.5 14.6 1.5 24.5 2.4s19.5 1.9 21.3 2.2q3.4.5 2.7-.5c-.3-.6-2.5-1.1-4.8-1.1s-12.7-1-23.2-2-20.8-2-23-1.9q-4.6.1 2.5 1m71.2 1.4q0 2.6.5 1.2c.5-1.4.2-2.3 0-3s-.5.2-.5 1.8m2.8-2q0 .5.5.5t.5-.5q-.1-.6-.5-.5t-.5.5m-216.7 5q0 4.4.4 2.2.4-3.2 0-5c-.4-1.8-.4 0-.4 2.8m200.2-3.6c-.7 1.2 1.2 2.4 2.5 1.6 1.1-.7.4-2.5-1-2.5q-.8 0-1.5 1m69.7.9c-.8.5-1.2 2-1 3.6s-.2 3-.9 3.2-1.3-1-1.6-2.9q-.4-4.6-.5 1c-.2 4.7.4 4.7 5.8.2l2.5-2.1-2.5 1.2q-3.5 2-.7-.8c2.8-3.2 2-5.5-1.1-3.4m6.9.3a5 5 0 0 0 1.5 3.2c2.1 2.2 3 2 1.2-.2-.9-1-1.8-2.4-2-3.2q-.7-1.8-.7.2m-175.1.3q0 .5.5.5t.5-.5q-.1-.6-.5-.5t-.5.5m29 3.2c-.5 2-1 4.5-1 5.3s.8-.7 1.5-3.5 1.2-5.1 1-5.3-.8 1.3-1.4 3.5m4.4-2.4c-1.6 4.5-2.2 9.9-1.2 10.2.7.2 12.9 1.5 27.2 3l41.3 4.2c8.4.9 15.4 1.4 15.6 1.2s.6-3 .9-6.3l.6-5.8-3.7.7c-2 .5-7.7.8-12.6.8-8 0-9.2-.3-10.7-2.2-1.7-2-3.8-2.4-26.6-4.6-28.8-2.9-30.2-3-30.8-1.3m87.5-.2q0 1.1.7.7a1 1 0 0 0 0-1.4q-.7-.4-.7.7m-125.4 9.2-1.3 12.2-.6 3.9 3.1-1.9q3.3-1.8 3.2-4.4a68 68 0 0 0-2.9-17.3c-.4-.4-1.1 3-1.5 7.5m143 1.1c-.4 5.4-.6 10-.3 10.3.7.7 2-15.8 1.5-18.2-.2-1-.8 2.5-1.2 8M253.2 391q0 3 .5 1.8c.2-1 .2-2.6 0-3.6s-.5-.1-.5 1.8m122.6-1.3q1.2.4 2-.1c.7-.5-.3-.6-1.4-.5q-1.7 0-.6.6m41.7 12c-8.2 6.9-17.6 14.5-20.7 17q-5.8 4.5-6.3 7.5c-.4 1.6-.5 3-.3 3.3.5.5 45-38.1 45-39-.3-2.7-4-.3-17.7 11.2m-155.4-10.1q0 1.7.6.6.4-1.2-.1-2c-.5-.7-.6.3-.5 1.4m107.3-.4q-.6 1 .4.4 1.1-.7 1.2-1.2c0-.8-.9-.4-1.6.8m10.8 1.8q0 2.2.5 1.3c.2-.7.2-1.9 0-2.6q-.5-.8-.5 1.3m22.1-1.3a1 1 0 0 0 1.4 0q.4-.7-.7-.7c-1.1 0-1 .3-.7.7m4.7 0c-.8.3-2.6 1.7-4 3q-3.3 3.1-.3 1.4c1.2-.6 2.5-1.6 2.8-2.1s2.3-1 4.3-1q4.3 0 1.7-1c-2.3-1-2.5-1-4.5-.3m19 11.5c-35.5 31-39.5 34.3-42.4 35l-3.1.6 3.2-.1c2.5-.2 7.7-4.1 27.9-21.7l26.3-22.7q1.3-1.1.6-1.2c-.7-.1-6.2 4.5-12.5 10M287 396q0 1.1.7.7a1 1 0 0 0 0-1.4q-.6-.4-.7.7m117.8 1.8c-3 2.2-3.7 3.5-4.1 7.2-.3 2.5-.4 4.6-.3 4.7s4-2.7 8.5-6.3 8.1-6.7 8-6.8-2.2-.6-4.5-1c-3.5-.5-4.6-.2-7.6 2.2m15.2-2.3q0 .5.5.5t.5-.5q-.1-.6-.5-.5t-.5.5m-156.6 12c0 6.6.1 9.2.3 5.7s.2-8.8 0-12-.3-.3-.3 6.3m-11.1-7q0 3.5.4 1.7.5-2.6 0-4c-.5-1.4-.5.1-.4 2.3m165.7-3q0 .5.5.5t.5-.5q-.1-.6-.5-.5t-.5.5m-260 2q-.2 1.9 2 .5 1.8-1 2-1.5-.2-.5-2-.5-1.8.1-2 1.5m-26.7 5c0 3.3.2 4.5.4 2.7s.2-4.5 0-6-.4 0-.4 3.3m175.5-4.8q1.2.4 2-.1c.7-.5-.3-.6-1.4-.5q-1.7 0-.6.6m108.2.3q-1.3.9-.9 1.5c.4.6 1.2-.1 1.9-1q2.1-2.6-1-.5m-129 .5q0 .5.5.5t.5-.5q-.1-.6-.5-.5t-.5.5m4 1c0 1.3.6 1.3 52 6.5l31.8 3.3q2 .4 2.2-.8c0-1.3-10.7-2.5-78.7-9.4-5.3-.5-7.3-.4-7.3.5m29.3-1a1 1 0 0 0 1.4 0q.4-.5-.7-.6c-1.1-.1-1 .3-.7.7m60 2.8q0 3.5.4 1.7.4-2.6 0-4c-.4-1.4-.5.1-.4 2.3m-209 4.4c-6.7 3.6-12.6 7-13 7.5s3-1.1 7.7-3.6l13.6-7.2 5.1-2.8 13.6 1.6c7.5.9 14.6 1.5 15.9 1.5 2.9-.2-23.6-3.7-27.7-3.7-1.8 0-7.8 2.6-15.2 6.7m155-6.2c1 .2 2.5.2 3.4 0q1.3-.5-1.7-.5c-3 0-2.7.2-1.7.5m10 1a1 1 0 0 0 1.4 0q.4-.7-.7-.7c-1.1 0-1 .3-.7.7m75.6 1q-2 2.4.4.4t1.3-2.1q-.5.2-1.7 1.8m-125.8.8q0 1.7.6.6.4-1.2-.1-2c-.5-.7-.6.3-.5 1.4m72.9-.1q0 .5.5.5t.5-.5q-.1-.6-.5-.5t-.5.5m-140.2 1.2c1.2.2 3.2.2 4.4 0s.3-.4-2.2-.4-3.5.2-2.2.4m70.9.7q-.5 1.6.6 2c1.2.4 34.3 4 66.4 7.2 14.6 1.4 16.4 1.4 18.4 0l2.2-1.5-2.4-.5c-2.5-.5-32.7-3.7-56.9-6l-21.1-2.2c-5.6-.5-6.7-.4-7.2 1m78.6-.7c1 .2 2.3.2 3 0s-.2-.5-1.8-.5-2.2.2-1.2.5m-141 1c1 .2 2.5.2 3.4 0q1.3-.5-1.7-.5c-3 0-2.7.2-1.7.5m25 3.3q0 4 .4 2.3c.2-1.3.2-3.3 0-4.6q-.3-1.6-.4 2.3m151.5 0-4.7 4-.4-2.7q-.4-3.4-.5 1l-.2 3.9 5.5-4.7c4.9-4.2 6.1-5.5 5.3-5.5-.2 0-2.4 1.8-5 4m-146 .7c-1.5 1-3 2.3-3.2 3s1 .3 3-1 3.4-2.5 3.4-3c0-1 0-1-3.2 1M287 412a72 72 0 0 0 12.8 1.9l24.7 2.7c6.6.8 13.5 1.3 15.5 1.3 4-.2-3.1-1.1-32.2-4.3A182 182 0 0 0 287 412m91 1.5q0 .5.5.5t.5-.5q-.1-.6-.5-.5t-.5.5m-122.3 3.2q-3.7 2.6-2.8 3.6c1 1 8.1-3.6 8.1-5.4 0-1.4-1.2-1-5.3 1.8m27.5-.2q0 2.6.5 1.2c.5-1.4.2-2.3 0-3s-.5.2-.5 1.8m-32.2-1q0 .5.5.5t.5-.5q-.1-.6-.5-.5-.6.1-.5.5m-24.8 1.7c-1.4 1.4-1.6 6.4-.4 7.2.5.3 4.4.7 8.8 1l7.9.5-8.2-1c-8.2-1-8.3-1.1-8.3-4 0-1.6.7-3.2 1.8-3.8q1.5-1 .6-1c-.5 0-1.5.4-2.2 1.1m149.3.9c-.3.3 1 1 2.6 1.3 4 .8 12.4.8 11.6 0a41 41 0 0 0-14.2-1.3m-250 2q-1.6 1.7-1.4 2.3.5.1 2.2-2 3.1-4.5-.8-.4m228-.5c11.3 1.5 20.6 1.9 12.4.5-2.6-.4-8.7-1-13.5-1.3l-8.9-.6zm-219.6.5c2 .5 5 2.5 7.6 5.4 3 3.3 5 4.6 7 4.6 3.1 0 6.5-1.6 6.5-3.2q-.2-.9-1.8.5c-2.8 2.6-7 2.1-9.7-1l-4.5-5a6 6 0 0 0-5.2-2.2l-3.3.1zm94.7-.1c-.3.4 2.5 1.1 6.2 1.5l11 1.3c3.3.4 4.2.3 4.2-1 0-1-1.8-1.6-7.7-2-10.1-1-13-.9-13.7.2m-99.9 4.4-9.4 10.5c-4.8 5.3-8 7.9-14 11a52 52 0 0 0-10.2 6.6l-2.4 2.5 2.9 1.2a50 50 0 0 0 29.9-1.1c-.3-.5 1.8-2.2 4.7-3.8a26 26 0 0 1 14-3.5 41 41 0 0 0 11.7-2q5.7-2.7.5 1c-1.6 1-5.9 2-11.7 2.4l-9.2.7 9-.2q9-.2 12.2-2c3.6-1.8 3.5-1.2 1.1-13.9-1.1-6-1.8-6.7-3.7-4.3-3.3 4-9.6 2.3-14.7-3.8-4.3-5.2-6.8-5.5-10.7-1.3m29.3-2.8q0 .5.5.5t.5-.5q-.1-.6-.5-.5-.6.1-.5.5m97.9 2a18 18 0 0 1-8.5 2.8l-4.9.3 4.8.2c3.6.2 5.7-.4 8.7-2.4q5.2-3.4 3.7-3.4zm26.3-.4q0 2.2.5 1.3c.2-.7.2-1.9 0-2.6q-.5-.8-.5 1.3m90.5 2.4L371 429l5.5.2 7.2.2c1.4 0 4.1-4.9 3.1-5.9-.2-.2-3-.7-6.3-1l-6-.7zm-251.7 1q0 .5.5.5t.5-.5q-.1-.6-.5-.5-.6.1-.5.5m247 2q0 .5.5.5t.5-.5q-.1-.6-.5-.5t-.5.5m-254 6a58 58 0 0 1-12 8.5c-7.8 4-13 8.8-12.9 11.8q.2 1.3 1.4-1.4c1.6-3.5 4.4-5.8 13.1-10.2 6.2-3.3 8-4.6 13-10 4.4-4.8 2.5-3.8-2.5 1.3m251.4-3c-1.7 4.4 1.4 6.3 10.6 6.3 5.2 0 4-.4-4.4-1.3-5.7-.7-5.8-.7-5.4-3.6q.6-4.8-.8-1.5m3.6.5c0 .9 7.1 2.1 12.6 2.1 5.7 0 3.8-1.7-2.7-2.4-8.2-.8-9.9-.8-9.9.3m-106 2.7q-2.2 2.3.7.6c5.4-3 10.7-1 14.1 5.3q1 1.7 1.2.9c.2-.8-1-2.6-2.3-4.5-2-3-2.8-3.4-7.3-3.7-3.8-.2-5.4.1-6.5 1.4m.2 2.8c-.6.7-2.4 5.2-4 9.9s-5.2 12.3-8 16.9c-5.2 8.5-6 12-3 13.9a7 7 0 0 0 3.4.8q1.8-.1-1.4-1-2.9-1-2.8-1.5c.1-.5 2.2 0 4.4.5 8 2.2 19 .9 24.4-3 3.2-2.3 7.2-12.7 7.2-18.9 0-6.3-1.2-12.2-2.4-11.4-.5.3-2.7-1.3-4.7-3.5-3.2-3.5-4.3-4.1-7.8-4.1-2.3 0-4.7.6-5.3 1.4m-103 11.6c-3.2 2.7-8.4 4-16.6 4a26 26 0 0 0-8.3.9c-1.8 1 12.9.3 19-1 2.6-.6 5.6-2.1 6.9-3.5q4-4.3-1-.4m93.9.5q0 .5.5.5t.5-.5q-.1-.6-.5-.5-.6.1-.5.5M132.5 451q-.5.9 1 .4 2.6-1.2.6-1.4-1 0-1.6 1m-4 2.6q-3 2 .3.4c1.2-.6 2.2-1.3 2.2-1.5 0-.8-.5-.6-2.6 1m122.7 2.2q-1.6 3.8.4.9a8 8 0 0 0 1.5-2.8q0-2.2-1.9 2m-123.8 1.8a57 57 0 0 1-30.3 2c-6.1-1.6-7.8-1.3-3.4.6 4 1.7 26.8 1.7 31.4 0 2-.7 4.6-2.1 6-3.2 3.2-2.5 2.7-2.4-3.7.6m121.7 1.9q0 .5.5.5t.5-.5q-.1-.6-.5-.5-.6.1-.5.5m-2.8 4.3c-2.9 4.2-3.6 6-1.3 3.2 2.5-2.9 4.4-6 3.7-6a10 10 0 0 0-2.4 2.8m36.8-1.3q0 .5.5.5t.5-.5q-.1-.6-.5-.5t-.5.5m-41 8.5q0 1.1.7.7a1 1 0 0 0 0-1.4q-.7-.4-.7.7m36.4 2.1c-3.2 3.6-7.3 5-16.3 6l-8.6.8 8.5-.3c9.2-.3 16-2.7 18-6.6q2-3.9-1.6.1M241 475q0 1.1.7.7a1 1 0 0 0 0-1.4q-.7-.4-.7.7m39.8 1.6a23 23 0 0 1-8 4.5c-2.9 1-4.4 1.8-3.3 1.8 3 0 9.7-3.3 12.4-6.3 3.2-3.4 2.3-3.4-1 0m-38.4 2.4q.6 1 1.1 1c.5 0 .2-.4-.1-1s-.8-1-1.1-1-.2.5.1 1m3.2 2.1q1.2 1.1 1.8.7.4-.6-1.2-1.2-2-1-.6.5m4.1 1.6q1.2.4 2-.1c.7-.5-.3-.6-1.4-.5q-1.7 0-.6.6m6.4 1c2.1.2 5.5.2 7.6 0s.3-.4-3.8-.4-5.8.2-3.7.4"/></svg>