<svg xmlns="http://www.w3.org/2000/svg" viewBox="0 0 512 512"><path fill="currentColor" fill-rule="evenodd" d="M308.6 76.5c-.2.7-.2 2.3.1 3.6.6 2.2.6 2.2-2.8-.4l-3.4-2.6-7.3 2.6A37 37 0 0 0 285 85c-7.6 7-6.2 33.1 2.4 46.3 3 4.3 2.6 8-.9 10.1-16.5 10-17.3 10.3-28.7 12.6a20 20 0 0 0-10 4.7c-5.9 5.1-7.9 10-7.9 19.7 0 6.8-.5 8.9-3.5 15.6q-3.5 7.7-3.5 12.1c0 7.3-1.8 16.1-4.7 23A49 49 0 0 0 225 248c-1 16.7-2.5 23-6 24.3a10 10 0 0 0-4.2 3.9q-1.6 2.9-4.2 2.8c-5 0-14.2 12-16.8 22a37 37 0 0 1-4.6 10.1 39 39 0 0 0-4.7 10.4c-1.4 5.2-2.4 6.8-8.5 12.6a47 47 0 0 0-8.8 11l-2 4.3-1.9-4.4-3.1-8.2a30 30 0 0 0-12.9-13 15 15 0 0 0-12 .6c-6.3 3.3-16.2 21.4-16.2 29.6 0 4.8 1.3 7.5 9.2 19.3 3.2 4.8 8.4 14 11.4 20.3 5 10.3 6 11.8 10.2 14.5 3.8 2.4 5.6 2.9 10.9 2.9 7.4 0 8.2-.9 10.8-11 2.3-9.5 3.4-11.7 7.1-15 3.2-2.8 9.8-5 11.1-3.6.3.3-.8 3.7-2.5 7.4-3.8 8.1-4 10.6-1 16.7 1.7 3.4 2.8 4.5 4.5 4.5 1.4 0 4.2 1.9 7.2 5 4 3.9 5.9 5 9.6 5.5 4.9.8 12.5-.7 16.2-3 1.2-.8 4.7-6.6 7.8-12.9 9.5-19.4 15.7-22.8 35-19.1 14.4 2.7 17.7 9 14 26.7-2.6 12-4.4 15-11.5 17.7-6 2.4-6.2 2.4-12.8.8a176 176 0 0 0-38.7-4.5c-11.1.1-12.6-.4-18.9-6l-2.9-2.7.6 4c.4 2 1.3 4.5 2 5.2.8.9 7 2.2 15.3 3.3 7.6 1 17 2.6 20.9 3.4s10.8 2 15.5 2.6c7.9 1 9.1.9 17.5-1.4 9.8-2.8 12-4.5 15.6-12.3 4-8.7 4.4-26.6.8-33.6-2.7-5.2-4.9-6.5-11.8-7.2-3.6-.3-7.9-.9-9.4-1.2l-2.9-.5 2-2.1c2.6-2.8 7-12.1 7.8-16.7a20 20 0 0 1 4.8-8 78 78 0 0 0 5.6-6.7l1.5-2.3 11 2.6a60 60 0 0 0 16.2 2.2c4.6-.4 5.9-1 12-6.4a88 88 0 0 0 18-21.1q1.6-6.4-4.7-9.2l-4-1.8 4.4-3c4-2.9 4.7-3.9 7-11.8 1.5-4.8 2.6-10 2.4-11.8l-.4-3.2-1.2 2.5c-1.1 2.2-1.2 1.9-.7-2.8.7-6.3 2.6-11.8 2.2-6.3-.1 2 .3 3.6 1 3.8 1.8.6 1.7-7.3 0-15.7-1.3-5.8-1.3-33 0-33 .1 0 2.2 1.3 4.5 3q9.1 6.9 1-2.9a55 55 0 0 1-9.6-18.7c-4.2-11.3-4.6-13.3-3.7-16 1.9-5.2 1.3-5-4.2.6-2.9 3-6.9 6.4-9 7.5-3.3 1.8-4.3 1.8-12 .7a96 96 0 0 1-14.2-3.2c-3.2-1.1-6-1.9-6.2-1.7s1 1.6 2.5 3c2.3 2.2 4.3 2.9 11.3 3.8 10.6 1.3 18 .5 23.7-2.6l4.7-2.5 3 7.5c3.6 9.8 3 15.5-2.5 23.7-3.2 4.8-4 7-4.5 12.5-.8 8.8-5 21-7.9 22.6-4.1 2.3-20.8 1.4-36.6-2.2l-17.4-3.7c-2.8-.6-2.8-.7-2.3-5.5.3-2.7 1.5-7 2.6-9.4l2-4.5-3.5-6.5-3.5-6.6 2-2.7c3.7-5.1 11.6-12 16.1-14l4.5-2-5.4-.1c-5.2-.1-5.5 0-9.5 4.6-2.2 2.7-5.8 6.4-7.9 8.4l-3.8 3.7 2.2 5.8c3 8.4 3.3 10.7 1.4 14.3a29 29 0 0 0-2.2 8.2c-.6 4.9-1.5 5.7-4.3 4-1.2-.9-1.2-2.2.4-10.3l2.3-11.6c.4-1.8.1-2.2-2-2.2-2.4 0-2.6.3-3.1 7.7-1.3 15.2-1.5 16-4.1 16.7-2 .5-2.5 1.3-2.5 3.6 0 1.7-.5 3-1.2 3s-3.3 2-5.9 4.6c-4 4-5 4.4-6.7 3.5-1.1-.6-3.5-1.1-5.3-1.1-2.8 0-3-.3-2.5-2.3a86 86 0 0 0 3.5-23.4 39 39 0 0 1 5-20.3c1.2-1.8 1.4-1.7 4.6 5.5q4.6 9.7 3-1.2-.6-4.5-3.2-7c-2.5-2.3-2.6-2.5-2-12q.7-9.6 2.1-11.2c3-3.4 4.7-9.6 5.7-20.9.8-10 1.2-12 3.5-15 3.6-4.7 7.6-6.9 14.1-7.7 3-.4 7.3-1.3 9.4-2a74 74 0 0 0 19.3-11.6c1.1-1.6 2-1.8 6-1 8.6 1.6 17.2-1.4 20.2-7q4.4-8.5-3.8-2a31 31 0 0 1-7.4 4.7c-2.4.6-11-1.8-13.6-3.9-3.1-2.4-6.8-18.3-7-30.4-.3-12.4.8-15.3 6.8-18.2 4.8-2.4 17-2 22.6.7 4.1 2 5 3 6.8 7.8 2.3 6.3 2.7 16.7.9 25.8-1 4.8-.9 7.1.6 14.4 2 9.5 2.8 11 9.5 15.5 2.5 1.7 6.6 5 9.2 7.3s7 5.7 9.8 7.5c7.2 4.4 9 8.5 9 20.8 0 8.7.3 10 3.7 17.5l3.8 8.1v21c-.1 24.5-1 30.4-8.4 53l-4.8 15 3 8.6 3 8.6-1.9 5.9c-1.8 5.6-2.2 6-7.6 8.7-3 1.6-7.5 3.1-9.7 3.4-3.5.5-4 .8-2.9 2 3 3.6 20.6-2.5 23.5-8 2.7-5.3 2.9-14 .4-19.6-4.4-10.2-4-14 3.5-31.6a36 36 0 0 0 4-17.5c.1-4.7.7-9.8 1.3-11.5.9-2 1-8 .6-20a70 70 0 0 0-4.1-27 47 47 0 0 1-3.4-18.9c0-9.4-.5-10.9-5.6-17.3-4-5-4.3-8-1.4-20.1 1.1-4.6 2-9.4 2-10.8s1.1-8 2.5-15q7.2-36-6-40.2c-4.3-1.4-18.4-2.8-35.7-3.5-8.1-.4-10.8-.2-11.2.8m1.4 3.1a57 57 0 0 0 6 3.5c10.6 5.6 11 7.6 10 40.4-.6 14.2.4 16.8 7.8 21.8 2.6 1.8 7.7 6.3 11.4 10.2l6.8 7v-5.9c0-6 1.4-15 5.6-37.1a182 182 0 0 0 3-21.5c.6-8.3.5-8.6-2.5-12.7-1.7-2.4-4.1-4.5-5.3-4.7a687 687 0 0 0-42.8-1m42.1 15.8c-1.1 2.9-5.3 25.9-6.6 36.5-.5 4.8-.4 5.3.9 4.2.8-.7 1.8-3.4 2.1-6s1.8-11 3.1-19c2.6-15 2.8-21.2.5-15.7M311.8 142a44 44 0 0 0-6 14.4c1.6 1.7 3.3 0 5.7-6.3 3-7.7 3.2-12.5.3-8.1m-20.6 6.8c.3 3 1.2 6 2.2 7 1.5 1.5 1.6 1.3 1.6-3.4 0-4-.5-5.5-2.1-7l-2.2-1.9zm-18 9.3c.2.7 3.3 2 6.8 2.6s7.3 2.1 8.4 3.2c4.4 3.9 7.9 3.4 5-.7q-3.3-5-14-5.9c-5.4-.5-6.6-.4-6.2.8m60.4 1.6c-.4.5-7 .8-14.7.8-13.6 0-13.9 0-16.5 2.6-3.4 3.5-2.8 5.8.8 3 3.8-3 7.5-3.4 14.1-1.7a22 22 0 0 0 11 .6c5.3-1 9.7-3.3 9.7-5 0-1.2-3.3-1.3-4.4-.3m-67.8 6.3a27 27 0 0 0-12.8 22.3c0 2.2.5 6.8 1.2 10.2 1 5.5.8 7.3-1 14.8a80 80 0 0 0-2.2 10.8c0 1.8.2 2 1.5.9q1.8-1.6 1 .2c-.3.8.3 2.6 1.4 3.9l2 2.4v-11.7c0-6.4.6-13 1.1-14.4.9-2.2.7-4-1-8.6-2-5.1-2.1-6.3-1-10.4a35 35 0 0 1 9-14.9c2.9-2.6 6.4-7.5 5.3-7.5-.4 0-2.4 1-4.5 2m18.7 31.6c-1.6.7-6.5 1.5-10.8 2-8.7.7-9.9 2.4-2.6 3.7 5.9 1 11.5 0 14.6-2.7 3.4-3 2.7-4.7-1.2-3m3 12.4c.3.5 2 1.2 3.9 1.5 2.4.5 4.8 2.4 8.7 6.8 7.4 8.4 8.9 10.7 8.9 14.4 0 1.8.4 3.3 1 3.3 1.1 0 2.8-3.1 2.5-4.5l-1-3.9c-.4-1.6-2.7-5.1-5.3-8s-5.6-6.3-6.5-7.9c-1.6-2.4-2.3-2.7-7.3-2.7-3.3 0-5.3.4-5 1m-4.8 7.6c-.4 1-1.2 8-1.8 15.4s-1.6 16-2.3 19c-1.4 5.6-.5 9.1 1.5 6 3-5 6.4-36.6 4.3-40.4-1-1.7-1-1.7-1.7 0m39.9 1.8a23 23 0 0 0-6 4.5c-2.8 3-2.8 3.1-.6 3.1 2.3 0 11.1-6.5 11.1-8.1 0-1.2-1-1-4.5.5m15.2 11.3a93 93 0 0 0-8.4 30c-.3 4-1 7-1.3 6.8s-2 .5-3.6 1.8c-2.4 1.9-4.3 2.3-12.6 2.5-6.8.3-11.3 0-15.3-1.2a364 364 0 0 0-44.5-8.9 19 19 0 0 0-2 4.4c-.9 3-1.7 3.8-4.4 4.3q-7.3 1.6-6.1 7.8l.6 3.3-3.1-3.4c-3-3.2-3.5-3.3-8.6-2.8-10.2 1-21.2 9.5-26.9 20.7a19 19 0 0 0-2.2 5.6c.2.2 2.9-.5 6-1.6 8.2-2.9 8.5-2.8 8 2.4-.3 2.5 0 5.9.5 7.6 1.8 5-1.8 3.4-4.8-2.2l-2.6-4.7-3.4 2c-7 4.1-11 9-13 15.8-1.7 5.4-3.2 7.6-9.4 14.2-8 8.3-9.7 11-11.5 17.7-.7 2.4-1.9 4.6-2.7 4.9-1.6.6-1.8 5.2-.4 10.2 1 3.6-.3 7.7-2.1 6.5-2-1.2-3.1-6-4-16.9-1-15.6-5-24-13.7-29.6-7.3-4.6-8.1-4.2-15.6 6.9-6 8.9-6.6 10.3-7.2 16.5l-.7 6.7 4.4 5.8c6.3 8 9 12.6 14.3 23q10.2 20.4 20.5 20.2c4.2 0 5.8-2.1 6.6-9a21 21 0 0 1 4.3-11.1q8.8-12.6 18.7-9.8 3 1 4.7-.8c3.1-2.8 3-5-.6-13.2-3.4-7.4-3.6-8.5-3.6-18.4 0-5.8.5-11.8 1-13.4 1.4-3.6 4.8-7.3 7.8-8.4s9.6.5 12 3.1c1.8 2 2 2 3.6.1 1-1 4.3-6.7 7.4-12.7 7.2-13.5 9.5-15.2 18-13.6l5.7 1 3.3-3.9a16 16 0 0 1 8.7-5.4c3-.9 7-2.8 9.2-4.2l7.8-5.4c9.6-6.5 18.3-5.6 27.7 3 11 10.1 16 29.1 10.4 40-2.3 4.4-8.9 8.3-14.9 8.9-3.6.3-6.6 1.5-10 3.7l-4.8 3.2 2.8.6 12.9 1.8 10 1.3 6.1-4.7c7.5-5.7 17.2-16.3 18-19.6q.7-2.5-1.7-4.3c-1.2-1-2.5-1.8-2.9-1.8s-1.7 2.5-3 5.5a15 15 0 0 1-5.8 7.5c-4.2 2.4-4.3 2.4-4.2.2 0-1 1.9-3 4.2-4.7 4-2.9 4.2-3.5 5.4-10.5.8-4.1 1-9.6.7-12.2s0-7.2.7-10.3c1.1-5 1-6-.5-9-1.7-3.1-1.7-3.4.2-7.1l2-3.9.7 6.6c.4 3.7.5 9 .4 11.8-.4 5 .2 6 3 4.2 2.2-1.4 6.2-23.5 6-33.6-.3-10 .6-20.3 2.3-28.3 1.9-8.7-.3-8.5-4.5.5m-17.7.3c-3.5 1.4-4.7 2.4-5.4 4.8q-1 3-3 3.4c-2 .3-2 .4 0 1.6 2 1 2.4.8 4.6-3 1.7-3.2 3-4.4 5.1-4.6q2.6-.4 3.4-1.8c.8-2.2.3-2.2-4.7-.4m-11.3 18a37 37 0 0 0-5.6 9.5c-2.4 6.5-2.4 6.6-1.1 6.6.5 0 2.3-2.6 3.9-5.7a68 68 0 0 1 6-9.7c3.5-4.4 3.6-4.6 1.7-4.6-.7 0-3 1.7-4.9 3.9M259 270c0 .5.8 2 1.9 3.2 1.6 2 3 2.4 9.2 2.7 6.9.3 7.2.3 5.3-1.2-2.6-1.9-16.4-5.8-16.4-4.6m24.5 12a22 22 0 0 0-14.3 10.5q-1 1.7-1.2.7.2-1.5-3.3-.7c-6 1.2-6.5 1.6-10.5 6.8-3.3 4.4-3.9 5.8-3.5 8.8l.5 3.7 5.8-3.3c5.4-3 5.8-3.1 7.9-1.6 2.1 1.6 2 1.7-5.8 5-4.4 1.7-9 4-10.1 5-2.2 1.7-4 7.3-4 12.8 0 2.8-1 4-7 8.9-7.7 6.2-7.3 5-5.3 15.9.9 4.8 4.3 7.7 4.3 3.8 0-1.8 1.4-4.4 8.3-15.7l3.6-5.9 1 2.8c1 2.4.7 3.3-2.6 7.8-2 2.9-5.8 7.8-8.5 10.9a41 41 0 0 0-6.2 9.6 47 47 0 0 1-7 12.2c-.1 0 .5-4.1 1.5-9.2 3-15.2.1-23.8-12.1-37-5.7-6.2-7.7-7.8-10-7.8-5 0-7.3 3.6-9 14.3-1.3 8.6.1 17 3.8 21.6 2.4 3 3 5.2 4 13.8a35 35 0 0 1-.9 18.5c-2.5 9.5-3.5 11.2-4.5 7.4-.7-2.8-.2-7.5 1.5-15.5.5-2.5.6-5.3.2-6.4-.6-1.6-1.4-.9-5 4.6-4.3 6.6-6.1 11.3-6 15.7 0 3.7 6.2 9.8 13.3 13 13 6 16.7 4.3 25.3-11.1a41 41 0 0 1 20.9-20.7c11.5-5.8 14.1-9.2 17.7-23.4a159 159 0 0 1 15.3-19.4c2.3-2.3 7-5.5 10.5-7.3 6-3 6.4-3 6.7-1.3.3 1.8.8 1.7 6.6-1.4 5-2.7 6.6-4.2 8-7.4 4.2-9-.8-24.8-10.4-32.9-7.7-6.5-12.2-8-19.5-6.2m-42.5 1.5a34 34 0 0 0 7.1 10.6c.5 0 .9-1.3.9-3 0-2.5-.4-3-2.5-3q-2.3-.1-2.5-.8c0-1.2-3-4.9-3-3.8m90.7 13.3c-2 .5-2.1 2-.7 5.8.9 2.3 1.3 2.5 2.6 1.4s4.4-6.1 4.4-7.3c0-.7-3.6-.6-6.3 0m-30.2 3.7a26 26 0 0 0-15 16c-1 4.1 1.7 2.6 6-3.5 2-2.7 5-5.7 6.7-6.6l5.2-3.4c2.9-2.3 1-3.9-2.9-2.5m-66.1 3.7c-1.2.5-4 4.5-6.7 9.7-2.6 4.8-6.2 10.7-8 13.1l-3.3 4.3 4.1 4.2c2.3 2.3 4.7 5.1 5.3 6.2.6 1 1.2 1.8 1.4 1.5l6-7.5q5.5-7 6.7-12c.7-2.7 2.1-6.4 3.2-8.1 1-1.8 1.9-5 1.9-7.3 0-3.6-.3-4.1-2.3-4.1-1.2 0-3.1-.2-4.2-.5s-3 0-4.1.5m39.1 6.9a13 13 0 0 0 4.9 1.7c3 .5 3.8.4 3.4-.7q-.6-1.3-4.9-1.7t-3.4.7m-9.5 5.5q0 4.4 2 6.7l2.1 2.4-.6-3a39 39 0 0 0-3-10.5c-.3 0-.5 2-.5 4.4m12.1 3.7c-5 2-8.4 5.4-11.3 11.5-4.1 8.9-3 10 2.3 2.4 2.4-3.6 6-7.5 8-8.8 5.5-3.8 6.3-7 1-5m1.7 10.6a28 28 0 0 0-9.3 12.5c-.6 2.2-.4 2.6.9 2.1.8-.3 1.8-1.5 2.2-2.6.3-1 2.8-4.4 5.5-7.4 4.2-4.6 5.9-7.4 4.6-7.4-.2 0-2 1.2-4 2.8m-164 43.3c-2 1.1-3 5.1-4.8 16.6-1.2 8-1.2 8.2 1.5 13.7 3.7 7.6 12 15.1 18.3 16.5l16.3 3.7c12.9 3 29.4 3.7 36.7 1.6 6.3-1.9 10.3-5.6 10.3-9.8V413l-4.2 4.6-4.2 4.5-2.2-9.3-2.3-9.3 2-7.3c1.1-4 1.8-7.7 1.4-8-2-2-7.5 10.7-7.5 17a17 17 0 0 0 4.3 10.7c1 .7 1.7 1.8 1.7 2.3 0 1.6-6.8 3.8-11.8 3.8-7.8 0-38.6-5.6-43-7.9a33 33 0 0 1-12.1-12.4c-2.2-3.6-2.3-4.1-1.1-12 .6-4.5 1.6-10 2.1-12 1.2-4.5 1-5-1.3-3.6m188.5 13c-11.2 8.3-13.3 10.3-13.3 12.7 0 2 10.5-5.7 18.5-13.8 3.8-3.8 6.7-7 6.3-7s-5.5 3.6-11.5 8m-40.2 7.9c-4 5-7 11.7-7.7 17.3-.7 4.9 1 12.4 3.3 15 1.5 1.7 6.3 2.5 6.3 1.1l-2.6-8c-3-8.9-2.7-12.3 1.8-22 1.7-3.5 2.8-6.6 2.5-6.9s-1.9 1.3-3.6 3.5m61.7.4a383 383 0 0 0-28 23.8c-3.4 3.3-5.1 7.9-3 7.9 1 0 37.2-33.8 37.2-34.6q.2-1.6-6.2 2.9M176.4 432c.4 2.3 1.5 5.9 2.6 8 1.7 3.3 2.4 3.8 6.7 4.4 2.6.4 9.5 1.8 15.3 3.2s19 4.3 29.3 6.5A600 600 0 0 1 299 475c2.3 1 3.4.7 11.2-4l8.7-5v-4.3a67 67 0 0 0-1.8-11.2l-1.7-7-9.4-2.7a87 87 0 0 0-13.5-3c-3.5-.3-4.1 0-4.4 1.8-.3 2.4 2 3.1 16 5.5 3.7.6 7.1 1.6 7.6 2.2s1.2 3.7 1.6 6.7.9 6.4 1.2 7.5c.4 1.7-.7 2.6-7 5.7l-7.5 3.7-5.3-2.3c-3-1.3-8.2-3.1-11.8-4.1l-21.5-6.5c-8.3-2.6-19.5-5.8-25-7s-16.6-4-24.7-6.2a172 172 0 0 0-21.7-4.5l-7-.6-1.8-5.6q-1.8-5.6-3.7-6c-1.7-.3-1.8.1-1.2 3.9"/></svg>