<svg xmlns="http://www.w3.org/2000/svg" viewBox="0 0 512 512"><path fill="currentColor" fill-rule="evenodd" d="M255.7 91q-12.3 3-18 13.5c-4.2 7.8-2.4 29.2 2.9 33.5 1.8 1.6 2 13 .2 15.2-.7.8-4.5 3.4-8.3 5.6s-8.6 5.7-10.5 7.7-6.7 5.2-10.6 7-9 5.3-11.4 7.6c-5.9 5.7-8.1 11.5-9 22.9a58 58 0 0 1-3 14.9 65 65 0 0 0-2.5 33.7c1.7 12 1.7 12.3-.5 21.5a81 81 0 0 0-1.6 32.4c2.7 13.5 2.6 13.6-1.9 15.2q-8.1 2.8-13.2 13.7a28 28 0 0 0-2.8 15.1c0 7.8.4 9.7 2.7 14 3 6 5 7.9 10.3 10 5 2.1 11 1.3 15.6-2 3.3-2.5 6.5-3.1 8.5-1.7 2.1 1.5 4.3 9.6 3.7 14.3l-.5 4.6-4.9-3.3a35 35 0 0 0-10.6-4.4c-10.7-2.2-15.2-4.1-20-8.4-2.6-2.3-6-5-7.3-6-3-2-10.1-2.1-14 0-5.3 2.6-6.4 6.3-6.5 21.4 0 7.4-.5 16.7-1 20.5-.7 6.3-.5 7.6 1.4 11.4 2.8 5.3 6.5 7 17.5 7.8 14.6 1 19.9-3.5 13.7-11.9a13 13 0 0 1-3.1-8.4v-4.1l8.8 9c13.7 14.1 28.2 24.2 36.5 25.3 7.4 1 11-.2 17.1-5.7 6.8-6.2 9-10.6 17.2-34.1 6-17.5 6.5-18.5 11-22.3 4.5-4 4.7-4.2 6.5-14 2.1-11.2 4-14.5 9-15.8 4.1-1.1 21-.4 30 1.4 8.3 1.5 11 .8 16.3-4.1 4-3.6 12.2-7.7 13.4-6.5.3.2 0 1.7-.6 3.2-2.4 6-5.2 18-5.2 22.3 0 2.5.7 7.2 1.5 10.5 2.8 11.8 1.5 31.7-3.6 51.5-1.6 6.3-2.9 12.5-2.9 13.7s1.2 3.6 2.7 5.3c2.5 2.8 3.6 3.2 11.8 4 5.6.7 11 2 14.4 3.5 11.6 5.4 22 6.7 29.1 3.9 9.7-3.9 7.7-11.6-4.5-17.7a78 78 0 0 1-20.4-19.4c-2.1-4-.7-14.1 4.5-32 7-24.2 7.5-26.7 8.6-43.8 1.8-29 1.7-32.5-1.4-37.3-2.2-3.3-4.6-5-11.1-8.2-4.6-2.2-11.7-4.8-15.8-5.9l-7.4-1.9-1.2-10.3c-2-17.2-3.2-22-7.3-30.6a31 31 0 0 1-4-17c-.2-4.9-.9-11.7-1.6-15.3a21 21 0 0 1-.3-10.5c2.8-10.2.8-22-4.8-28.5-4-4.7-7-6.4-13.8-7.8-2.8-.6-7.7-2.7-11-4.6-3.2-2-6.3-3.6-6.7-3.6s0-1.2 1.1-2.7a69 69 0 0 0 5.8-25.4 66 66 0 0 0-1.7-19c-3.2-16.1-5.3-19.1-16-22.3a40 40 0 0 0-19.3-.5m2.6 6c-11.4 2.2-16.6 8.1-16.7 18.8-.1 6.5 0 6.6 2.9 7 2.7.6 3 1 2.7 4.1-.5 4.1-1 5.2-2.3 4.5q-.8-.5-.9.5c0 1.4 4.7 5.8 7 6.5 1 .3 3.2 3 5 6 3.3 6 7 8.5 16.7 11 9.5 2.5 10.1 1.8 12.9-13.7 1.8-10.3 1.5-19-1.1-30.4-2-8.4-3.7-11.2-7.8-12.9a40 40 0 0 0-18.4-1.5M244 128.5q0 .5.5.5t.5-.5-.5-.5-.5.5m-4 1q0 .5.5.5t.5-.5-.5-.5-.5.5m8 18.9c0 6-3.2 10.2-10.8 14.6-3.4 2-8.7 5.7-11.7 8.3s-8.4 6.3-12.2 8.2-8 4.5-9.5 6.1c-5.4 5.8-7.5 14.6-5.7 24.5 2 11.2 2.1 12.9 1.2 12.9-.6 0-1.8-1-2.9-2l-1.8-2.1-1.3 3.5a81 81 0 0 0-3 20.8c.2.7.7-.8 1.1-3.4q1.1-7.6 3.6-2.9a25 25 0 0 1 .4 12.5c-1 2.6-3.4 1.9-3.4-1 0-1.5-.2-2.5-.5-2.2s-.3 3 .1 6.2c.6 4.6 1 5.4 2 4.5q4.4-3.7-1 15a75 75 0 0 0-2.1 38.3c1 5.8 1.4 14.7 1.3 28-.1 21.6 0 22 6 24.5 4.2 1.7 5.1 1.7 4.5-.5a53 53 0 0 1 4.7-19.9c2.5-4.3 2.5-4.7-.4-8.6-4.3-5.9-4.1-9.6 1.5-27.5a60 60 0 0 0 3.4-26.8c-.5-4.4-1-5.4-1.6-4.1-1.3 2.3-3.9 2.2-3.9-.3 0-1 1.8-5.3 4-9.5s5-10.9 6-14.8a118 118 0 0 0 4.6-26.3c-.8-2 1.1-6.4 2.8-6.4 3 0 4 7.3 2.7 17-1.2 8.6-1.2 9.1.9 12.5 2.3 3.7 3.8 4.9 2 1.6-1.6-3 .5-3.5 4-1q2.8 2.3 5.9 1.6 3-.7 5.5 1.4c1.5 1.1 2.4 2.5 2 3-.7 1.2-9.6 1.2-13-.1-2.3-.9-2.5-.8-2 .7a43 43 0 0 1 2 18.4c-.3 4.9-.2 8.4.5 9.7 1.3 2.4 10.5 5.6 20.1 7.2 9.4 1.4 9.7 1.4 7-1.4-3.6-4-5.8-12.6-3.1-12.6.3 0 2.9 3.4 5.6 7.6l5 7.6 6.3-.6c6.7-.6 17-4.6 17.6-6.8.3-.7.7-4.6 1-8.6.4-6.2.3-7.2-.9-6.2-1 .9-2.2.8-5-.5-3.2-1.6-3.5-1.6-5.1 0-2.6 2.6-6 3.5-12.8 3.5-4.9 0-7-.5-9-2-3.3-2.7-3.6-5.6-.3-4.4s22.7 1.1 22.5-.1c-.2-1 1-9 1.8-11.7 1.6-5.4 5 1.8 3.6 7.3-1 3.7-1 3.7 2.4 4.1 1.8.2 3 0 2.8-.4s1-3.2 2.7-6.3 2.9-6 2.6-6.8-2.8-1.9-5.6-2.6-5.4-1.7-5.7-2.2q-.6-.9-1.7 0c-1.5 1-14 6.1-15.4 6.1q-1.1.2-2.5 2.2c-1.4 2.1-1.7 2.2-4.3.8-4.1-2.2-9.5-7.5-9.5-9.4q0-3.6 6.2 1.3l3.8 2.8 7-3.3a44 44 0 0 1 8.5-3.4c3.2 0 4.7-3.1 4-8.2-.5-4-.3-5 1.2-5.5a11 11 0 0 0 3.1-2q3.1-3 7.8 1c3.7 3.3 2.4 5.2-2.2 3.2q-7-2.8-5.3 2.2c.5 1.3.9 3.5.9 4.8 0 1.8.8 2.6 3.4 3.5 2 .6 4.6 2 6 3.2l2.7 2-.2-11.4-.3-11.3-4.5-.1a26 26 0 0 1-13.3-4.6c-1.4-1-2.1-.9-4 .9-5 4.5-17.7 9.3-24.7 9.3-6.7 0-12-3-20.8-11.4-6.2-5.9-7.5-7.7-6.6-8.7 1.7-1.7 4.4-.3 12.2 6.5 7.4 6.4 11.5 8 18.2 7.3 7.1-.9 18.1-5.7 19.6-8.7a36 36 0 0 0 .3-17.5c-1-6 .3-8 3-4.8a44 44 0 0 1 4 18.4q-.1 6.4 11 7.6c6.7.8 9-.9 12.4-9.1 1.6-3.7 3.4-6.5 4-6.3 2 .7 1.2 10-1.4 14.7-2 3.8-2.4 6.5-3 18a78 78 0 0 1-2.3 17.9c-2 5-2.1 7.4-.7 9.9.5 1 2 4.6 3 8.2s3.3 8.4 4.6 10.8l2.5 4.2h16l-.5-3.2L328 272a54 54 0 0 0-5.8-21.9l-2.6-5.3-1.6 4.8c-.9 3-2 4.9-3 4.9-2.4 0-2.4-3.3 0-11.3q4-13.3 1-27.3c-1-5.2-1-7.6-.2-11.2 2.4-9.2 1-19.5-3.1-24.2-2.7-3-13-7.3-12-5 .6 1.6 0 1.8-6.8 1.5-2.5 0-7 .8-10 2q-9 3.3-5.3-1.9c1.9-2.6 7.1-5.1 11-5.1 1.4 0 2.3-.4 1.9-1-.7-1.1-8.5-5.3-9-4.8l-1.2 4.3c-1.4 6.3-3.7 5.3-4.1-1.7-.3-5.4-.5-5.8-3-6.4q-17.6-3.9-22.6-14.1c-1.2-2.3-2.4-4.2-2.8-4.3s-.8 2-.8 4.4m3.6 8.4c-.4.7.8 4.8 2.7 9.2l3.5 8-7.2.1c-8.5.1-12.1 1-12.1 3 0 1 2.3 1.5 11 2 6 .4 13.5 1.4 16.6 2.2 10.6 2.7 9.6-2.4-1.1-5.7-2.5-.8-4.4-2-4.2-2.6 1-4.2-7.5-19-9.2-16.2m46.4 16.7q0 .5.5.5t.5-.5q-.1-.6-.5-.5t-.5.5m-66.8 16c-3 2.2-6.7 9.4-5.4 10.7 1.4 1.4 2.8.4 6.3-4.4 2.7-3.9 3.8-7.8 2.1-7.8-.4 0-1.8.7-3 1.6m-17.3 27c-4 2.9-7.3 8.4-6 9.7 1.1 1.1 13.1-9 13.1-11s-3.3-1.5-7 1.2m58.4 13.4c-6.6 4.8-12 11-10.7 12.2 1.4 1.4 8.2-2.8 14.1-8.8 6.3-6.3 3.9-8.8-3.4-3.4m-38.2 3c-3.8 1.8-4.2 2.3-3.8 4.8 1 5.6 8.5 9.3 16.1 7.9 4-.8 4.2-1.2 1.9-3.7q-1.6-1.8-4.3-1.3a14 14 0 0 1-6.6-1l-3.9-1.7 4.2-2c4.1-2 5-4.1 2.1-4.6a16 16 0 0 0-5.7 1.7M221 243.5q0 .5.5.5t.5-.5-.5-.5-.5.5m-1 14.7c-2.4 6-2.5 7.2-2.2 21.8l.3 15.5-4 12.8c-4.5 14-5 19.3-2.3 22.7 3.3 4 4.5.5 5.3-15.3.7-15 2-20.2 6.4-27 1.6-2.2 2.5-5.1 2.5-7.4 0-2.1.5-6.5 1-9.8 1-6.3-.3-13.9-3.2-17.8-1.2-1.5-1.6-1-3.8 4.5m90.4.3c-.8 3 1 5.5 2.7 3.8 1.3-1.4.8-5.5-.8-6-.7-.3-1.5.7-1.9 2.2m-52.9.4c-3.3.7-4.6 3.7-2 4.7 2.2.9 8.8-2.3 8.2-3.9-.5-1.5-2.2-1.7-6.2-.8m-20.5 2.3c0 3.7 10.5 12.6 13.5 11.4 2.6-1 1.7-2.3-4.9-7.5-6.4-5.1-8.6-6.1-8.6-4m62.5-.1q.6 1 1.1 1t-.1-1c-.6-1-.8-1-1.1-1s-.2.5.1 1M191 264.5q0 .5.5.5t.5-.5q-.1-.6-.5-.5-.6.1-.5.5m110 0q0 .5.5.5t.5-.5q-.1-.6-.5-.5t-.5.5m-1.3 12.4c-.5 3.8-.2 4.9 2.1 7.7 4 5 5.8 4.4 3.1-.8a74 74 0 0 1-3.4-7.7l-1.2-3.5zm-18.2 1c-2.4 2.6-2.6 3.3-1.5 4.6 1.2 1.4 1.5 1.3 3.6-.6 2.3-2.1 3.3-6.9 1.6-6.9-.5 0-2.1 1.3-3.7 3m-51.3 12.3c-4.6 5.8-7.2 16.6-7.2 30.4 0 6.8.3 8.1 1.5 7.7 2.2-.9 8.3 1.5 12 4.7 5.5 4.9 7.9 11.8 7.9 22.9 0 7.8-.5 10.6-2.5 15.6l-2.5 6 5-.8a46 46 0 0 0 10.6-3.6c4.6-2.3 5.5-3.3 6.1-6.2q.8-3.4-.7-4.5c-1.1-.8-1-2 1-6.8 5.3-12.7 18.9-32.7 22.9-33.5q3.5-.6-.6 5.8l-4.3 6.4-1.9 3 5.1-3.5c6-4.1 11.2-6.5 12.2-5.5.7.8-3.8 5.3-9.3 9.3l-3 2.2h5.6c3.1 0 7.7.4 10.3.7l4.7.7-1-2.7c-3.8-9.8 2.2-29.2 12.4-40.1l4.1-4.5h-7.3c-8.1 0-10.2.8-19.6 7.3-11.1 8-7.8-.4 3.7-9.1 4.5-3.4 2.5-3.6-3.7-.3-7.8 4-15 5.4-28.3 5l-11.3-.4-1.6 2.7c-2.6 4.5-14 12.8-17.4 12.8q-4.2 0 7.3-9.6l8.3-6.9-5.6-1.6c-3-.8-7-2.3-8.7-3.2-2.5-1.3-3.4-1.4-4.2-.4m93.5 7.8a44 44 0 0 0-14.7 21.6c-2 6.8-2.6 14.8-1 17.2 1 1.8 7.4.9 17.3-2.5 4-1.4 9.6-2.8 12.6-3.2l5.3-.7-9.3-3.3c-10-3.6-13.9-5.6-13.9-7.2 0-2.8 15.8 1 22.3 5.5 4.3 3 4.3 2.1-.8 18.5-4.4 14.2-4.8 18-3 27.5a132 132 0 0 1-3.5 54.7 57 57 0 0 0-2.4 13.2c.6 1.6 3 2.2 12.4 3a44 44 0 0 1 12 3.4c9.1 4.2 18 5.8 23.1 4.3 2.2-.7 3.9-1.7 3.7-2.3s-3-2.5-6.4-4.2a88 88 0 0 1-23.9-23.3c-2.3-4.7-1.7-13.6 1.5-25.8 10.2-37.6 10.1-37.4 11.2-54.5 1.6-24.1 1.5-28.2-.6-31.5-2.1-3.2-13-8.5-23.6-11.4-10-2.8-12.8-2.7-18.3 1m16.4 5.2c-7.2 2.5-3.3 5.3 5.8 4.1q8.9-1.2 6.5-3.4c-1.7-1.7-8.5-2.1-12.3-.7m-74.6 7.5c-12.2 4.3-17.5 6.8-17.5 8.2 0 4 31.3-6.4 32.8-10.7.7-2.2-3.8-1.5-15.3 2.5m20 3L268.9 326c-12.8 9.2-16.9 12.5-16.9 14q.2 3 10.8-3.4c17.8-11 35.5-27.6 29.4-27.6-.4 0-3.4 2.1-6.7 4.7m69.1 3.9c-1 2.4-.7 4.6 1 10.3 1.3 4.6 1.7 5 3 4s1.5-2.5 1-6.7c-1-7.8-3.4-11.7-5-7.6m-160.2 9.8c-.7 3 .4 6.8 2 6.3 1.4-.5 2-3.2 1.2-6.3s-2.4-3-3.2 0m-16 3.9c-5 5-6.8 10.4-6.7 19.9 0 8.5 3 15 7.7 17.2 4.2 2 4.8 2 9.3 0 3.6-1.4 3.6-1.5 1.6-2.9-2.6-1.8-4-5.5-4.8-13s-.8-7.4 0-17.2c.7-7.6.6-8.3-1-8.3-1 0-3.7 2-6 4.3m40.4 6a23 23 0 0 0-6.4 8.2c-2.7 5.4-3 7-3 15.5 0 7.4.4 10.4 2 13.4 5.2 10.7 17.4 9.5 23.5-2.4 5.8-11.3 4.4-29.4-2.8-35-3.3-2.7-9-2.6-13.3.3m91.6 4.7c.3.6 1.8 1 3.3 1q3.5 0 .7-1c-2.8-1.2-4.7-1.2-4 0m-.5 3.5q0 .5.5.5t.5-.5q-.1-.6-.5-.5t-.5.5m39 3.3c-1.6 3.2-7 23.4-6.4 24.3q1.5 2.7 4.3-3a60 60 0 0 0 5.1-19c0-3.6-1.5-4.9-3-2.3m-197.6 24.6c-1.7 1.3-2 3.2-2.6 16.8-.3 8.4-.9 17.6-1.2 20.3-.8 6.2.9 10 4.4 10 1.4.1 3.3.5 4.3 1s2.9.4 4.3 0c1.5-.3 3.2 0 4 .6q1.4 1.1 1.4.1.2-.9 2-.5 3.9 1-.3-3.5c-1.9-2-2.3-3.7-2.5-11s-.8-9.1-2.5-11c-1.8-1.9-1.9-2.5-.8-3.2 3-1.8 9 2.6 20.6 14.9 13.4 14.2 29.6 25 37.5 25 6.6.1 12.7-5.5 17.1-15.5 3-6.8 13-34.7 12.5-35.2-.2-.2-2.1.1-4.3.7s-5.6 1-7.8 1a21 21 0 0 0-8 2.1 16 16 0 0 1-14 .6c-2-.8-3.5-1.2-3.5-.8l-1 11.7c-1.3 13-2.3 17.5-5 20.7-1.7 2-2 2.1-2.5.6-.4-1-.3-5.8.2-10.8.7-6.8.6-9.6-.4-11.4-2-3.7-8.9-7.3-17.3-9.1a40 40 0 0 1-21.4-10.5c-6-5.3-9.5-6.2-13.2-3.6m7.3 5.3c-1.4 1.3-.6 2.1 3.4 3.7 5 2 6.8 1.2 3.8-2-2.1-2.3-5.8-3.2-7.2-1.7m20.8 20.3c-2.2 3.5 13 18 18.9 18q5.5.1-4.8-7.4c-4.1-3-8.5-6.9-9.7-8.6-2.4-3.2-3.4-3.6-4.4-2M155 424.5q0 .5.5.5t.5-.5q-.1-.6-.5-.5-.6.1-.5.5"/></svg>